<?xml version="1.0" encoding="UTF-8" standalone="no"?>
<!-- Created with Inkscape (http://www.inkscape.org/) -->

<svg
   width="120mm"
   height="120mm"
   viewBox="-10 -10 120 120"
   version="1.1"
   id="svg5"
   xml:space="preserve"
   inkscape:version="1.2.2 (732a01da63, 2022-12-09)"
   sodipodi:docname="kth_logo.svg"
   xmlns:inkscape="http://www.inkscape.org/namespaces/inkscape"
   xmlns:sodipodi="http://sodipodi.sourceforge.net/DTD/sodipodi-0.dtd"
   xmlns="http://www.w3.org/2000/svg"
   xmlns:svg="http://www.w3.org/2000/svg"><sodipodi:namedview
     id="namedview7"
     pagecolor="#ffffff"
     bordercolor="#000000"
     borderopacity="0.25"
     inkscape:showpageshadow="2"
     inkscape:pageopacity="0.0"
     inkscape:pagecheckerboard="0"
     inkscape:deskcolor="#d1d1d1"
     inkscape:document-units="mm"
     showgrid="false"
     inkscape:zoom="0.72515432"
     inkscape:cx="48.265588"
     inkscape:cy="183.40924"
     inkscape:window-width="1920"
     inkscape:window-height="986"
     inkscape:window-x="-11"
     inkscape:window-y="-11"
     inkscape:window-maximized="1"
     inkscape:current-layer="layer1" /><defs
     id="defs2"><clipPath
       clipPathUnits="userSpaceOnUse"
       id="clipPath150"><path
         d="M 0,595.28 H 841.89 V 0 H 0 Z"
         id="path148" /></clipPath></defs><g
     inkscape:label="Layer 1"
     inkscape:groupmode="layer"
     id="layer1"
     transform="translate(-316.78564,-54.783926)" /><path
     d="M 100.38114,100.38115 H 0 V 0 h 100.38114 z"
     style="fill:#1954a6;fill-opacity:1;fill-rule:nonzero;stroke:none;stroke-width:0.352778"
     id="path142" /><g
     id="g144"
     transform="matrix(0.35277776,0,0,-0.35277778,-96.78564,155.21763)"><g
       id="g146"
       clip-path="url(#clipPath150)"><g
         id="g152"
         transform="translate(416.626,177.9951)"><path
           d="m 0,0 c -0.916,1.006 -1.921,2.125 -2.951,3.277 0.977,1.109 1.979,2.242 2.95,3.324 C 0.971,5.519 1.973,4.386 2.95,3.276 1.92,2.125 0.916,1.006 0,0 m 5.407,3.276 c 2.48,2.815 5.136,5.801 6.985,7.65 3.667,3.667 7.452,3.628 7.452,3.628 0,0 -4.324,2.123 -8.882,-2.431 C 9.736,10.896 6.988,7.804 4.178,4.653 3.163,5.792 2.159,6.919 1.228,7.957 c 1.032,1.132 1.997,2.162 2.803,2.969 3.667,3.667 7.453,3.628 7.453,3.628 0,0 -4.326,2.123 -8.877,-2.431 C 2.028,11.544 1.104,10.542 0,9.322 c -1.104,1.22 -2.028,2.222 -2.607,2.801 -4.555,4.554 -8.88,2.431 -8.88,2.431 0,0 3.783,0.039 7.453,-3.628 0.807,-0.807 1.772,-1.837 2.805,-2.969 C -2.16,6.919 -3.165,5.792 -4.18,4.653 c -2.81,3.151 -5.559,6.243 -6.785,7.47 -4.557,4.554 -8.88,2.431 -8.88,2.431 0,0 3.783,0.039 7.45,-3.628 1.85,-1.85 4.505,-4.835 6.985,-7.65 -2.34,-2.618 -4.574,-5.093 -5.845,-6.365 -3.049,-3.049 -6.602,-3.282 -6.602,-3.282 0,0 3.821,-2.237 9.034,3.089 0.965,0.986 2.693,2.947 4.642,5.163 1.061,-1.205 2.059,-2.338 2.9,-3.276 -0.625,-0.672 -1.181,-1.259 -1.616,-1.694 -3.049,-3.049 -6.603,-3.282 -6.603,-3.282 0,0 3.822,-2.237 9.037,3.089 0.138,0.141 0.295,0.306 0.463,0.485 0.168,-0.179 0.325,-0.344 0.463,-0.485 5.209,-5.326 9.033,-3.089 9.033,-3.089 0,0 -3.553,0.233 -6.599,3.282 -0.435,0.435 -0.991,1.022 -1.617,1.695 0.841,0.937 1.838,2.07 2.898,3.275 1.95,-2.216 3.677,-4.177 4.642,-5.163 5.213,-5.326 9.034,-3.089 9.034,-3.089 0,0 -3.553,0.233 -6.603,3.282 C 9.98,-1.817 7.747,0.658 5.407,3.276"
           style="fill:#ffffff;fill-opacity:1;fill-rule:nonzero;stroke:none"
           id="path154" /></g><g
         id="g156"
         transform="translate(322.9819,345.5942)"><path
           d="M 0,0 C 0.188,0.358 0.383,0.525 0.512,0.565 0.66,0.613 0.772,0.689 0.86,0.78 0.983,0.756 1.12,0.759 1.269,0.807 1.886,0.994 3.652,-0.304 4.267,-2.258 4.469,-2.903 4.553,-3.564 4.527,-4.19 4.094,-4.515 3.483,-4.861 2.709,-5.105 2.103,-5.293 1.468,-5.393 0.872,-5.393 c -0.068,0 -0.121,0.007 -0.183,0.009 -0.378,0.5 -0.696,1.078 -0.896,1.723 C -0.647,-2.253 -0.408,-0.777 0,0 M 6.261,-4.691 C 6.342,-5.219 6.252,-5.747 5.995,-6.237 5.565,-7.055 4.704,-7.715 3.63,-8.049 3.161,-8.196 2.69,-8.271 2.232,-8.271 c -1.26,0 -2.235,0.548 -2.681,1.485 0.494,-0.127 1.006,-0.151 1.321,-0.151 0.749,0 1.543,0.124 2.298,0.358 1.277,0.403 2.432,1.12 3.091,1.888 m -8.319,-2.21 c 0.558,-1.797 2.202,-2.914 4.29,-2.914 0.605,0 1.221,0.098 1.828,0.285 0.074,-0.123 0.159,-0.246 0.282,-0.412 0.319,-0.43 0.689,-0.791 1.099,-1.073 0.134,-0.091 0.286,-0.135 0.437,-0.135 0.246,0 0.487,0.117 0.637,0.335 0.241,0.351 0.152,0.832 -0.2,1.073 -0.27,0.185 -0.516,0.428 -0.731,0.717 -0.046,0.063 -0.078,0.107 -0.109,0.15 0.813,0.497 1.482,1.147 1.887,1.919 0.514,0.979 0.613,2.05 0.285,3.099 -0.311,0.999 -1.126,1.31 -1.559,1.336 C 6.036,-2.517 5.986,-2.542 5.934,-2.549 5.882,-2.296 5.818,-2.044 5.74,-1.795 4.992,0.584 2.837,2.496 1.205,2.355 1.017,2.513 0.696,2.714 0.302,2.58 -0.094,2.462 -0.248,2.141 -0.322,1.878 -0.73,1.646 -1.086,1.252 -1.367,0.718 c -0.696,-1.324 -0.82,-3.224 -0.314,-4.838 0.077,-0.248 0.168,-0.491 0.268,-0.727 -0.043,-0.023 -0.093,-0.029 -0.132,-0.061 -0.337,-0.27 -0.825,-0.994 -0.513,-1.993"
           style="fill:#ffffff;fill-opacity:1;fill-rule:nonzero;stroke:none"
           id="path158" /></g><g
         id="g160"
         transform="translate(335.834,330.9399)"><path
           d="M 0,0 C -0.024,0.998 0.244,1.914 0.755,2.582 1.054,2.971 1.557,3.429 2.341,3.565 1.83,2.692 1.514,1.35 1.542,0.032 1.571,-1.253 1.928,-2.594 2.509,-3.46 1.078,-3.291 0.04,-1.889 0,0 M 5.283,2.457 C 7.315,2.529 9.129,1.238 9.145,0.617 9.145,0.455 9.186,0.32 9.249,0.207 9.19,0.092 9.154,-0.043 9.16,-0.205 9.163,-0.331 9.066,-0.57 8.786,-0.864 8.179,-1.5 6.856,-2.198 5.385,-2.23 4.714,-2.248 4.056,-2.146 3.467,-1.951 3.272,-1.443 3.104,-0.756 3.085,0.066 3.069,0.869 3.198,1.552 3.363,2.064 3.945,2.293 4.594,2.441 5.283,2.457 M 2.907,-5.02 c 1.046,0.02 1.577,0.714 1.727,1.122 0.017,0.048 0.008,0.099 0.015,0.148 0.198,-0.015 0.396,-0.026 0.597,-0.026 0.057,0 0.115,0 0.173,0.002 1.69,0.037 3.451,0.761 4.484,1.844 0.416,0.436 0.676,0.899 0.765,1.363 0.201,0.133 0.478,0.38 0.467,0.789 0,0.417 -0.267,0.659 -0.5,0.806 C 10.242,2.633 7.78,4.054 5.248,4.001 4.987,3.995 4.729,3.975 4.474,3.943 4.464,3.996 4.472,4.05 4.451,4.1 4.292,4.489 3.755,5.147 2.689,5.147 H 2.687 C 1.432,5.117 0.311,4.54 -0.47,3.521 -0.912,2.945 -1.208,2.243 -1.379,1.484 -1.429,1.499 -1.478,1.514 -1.549,1.537 -1.886,1.645 -2.196,1.802 -2.472,2.005 -2.815,2.257 -3.299,2.185 -3.551,1.84 -3.804,1.497 -3.73,1.013 -3.387,0.761 c 0.411,-0.302 0.87,-0.536 1.368,-0.696 0.197,-0.062 0.341,-0.102 0.478,-0.132 0.075,-2.872 1.896,-4.954 4.344,-4.954 0.005,0 0.099,0.001 0.104,0.001"
           style="fill:#ffffff;fill-opacity:1;fill-rule:nonzero;stroke:none"
           id="path162" /></g><g
         id="g164"
         transform="translate(320.8442,285.3242)"><path
           d="M 0,0 C -0.516,0.854 -0.739,1.785 -0.626,2.618 -0.56,3.108 -0.349,3.762 0.263,4.262 0.25,3.249 0.643,1.925 1.324,0.789 2.018,-0.357 3,-1.305 3.895,-1.759 2.58,-2.321 0.939,-1.564 0,0 M 3.364,4.756 C 5.124,5.81 7.312,5.605 7.627,5.087 7.708,4.94 7.813,4.841 7.927,4.772 7.933,4.644 7.968,4.508 8.053,4.37 8.118,4.262 8.153,4.006 8.056,3.611 7.846,2.76 7.044,1.496 5.78,0.735 5.204,0.388 4.587,0.151 3.978,0.029 3.558,0.372 3.072,0.884 2.646,1.586 2.227,2.286 1.999,2.953 1.89,3.485 2.283,3.968 2.783,4.405 3.364,4.756 M 9.555,3.241 C 9.7,3.825 9.695,4.356 9.544,4.802 9.653,5.019 9.772,5.372 9.555,5.727 9.347,6.082 8.998,6.159 8.725,6.173 7.588,7.37 4.716,7.366 2.568,6.079 2.345,5.944 2.132,5.799 1.926,5.646 1.892,5.687 1.871,5.737 1.827,5.771 1.756,5.827 1.374,6.101 0.8,6.101 0.448,6.101 0.104,6.001 -0.225,5.803 -1.299,5.154 -1.985,4.097 -2.157,2.825 -2.253,2.105 -2.162,1.35 -1.934,0.605 -1.985,0.594 -2.035,0.583 -2.108,0.567 -2.458,0.493 -2.805,0.476 -3.138,0.515 -3.559,0.566 -3.945,0.262 -3.995,-0.162 c -0.049,-0.423 0.253,-0.807 0.677,-0.857 0.175,-0.02 0.353,-0.031 0.531,-0.031 0.33,0 0.664,0.035 0.999,0.107 0.202,0.043 0.346,0.077 0.483,0.12 1.015,-1.675 2.604,-2.675 4.256,-2.675 0.731,0 1.427,0.197 2.067,0.585 0.894,0.537 1.011,1.403 0.939,1.83 -0.008,0.049 -0.041,0.088 -0.058,0.134 0.23,0.108 0.457,0.228 0.679,0.362 1.45,0.873 2.619,2.375 2.977,3.828"
           style="fill:#ffffff;fill-opacity:1;fill-rule:nonzero;stroke:none"
           id="path166" /></g><g
         id="g168"
         transform="translate(303.0488,292.1006)"><path
           d="m 0,0 c 0.107,0.114 0.168,0.236 0.201,0.358 0.12,0.04 0.238,0.112 0.341,0.231 0.438,0.462 2.622,0.203 4.116,-1.197 0.496,-0.466 0.894,-1 1.178,-1.555 C 5.618,-2.659 5.256,-3.263 4.701,-3.856 4.147,-4.442 3.561,-4.84 3.05,-5.096 2.488,-4.849 1.942,-4.49 1.454,-4.027 0.379,-3.021 -0.139,-1.619 -0.166,-0.742 -0.178,-0.337 -0.09,-0.096 0,0 M 8.119,-3.227 C 8.147,-4.149 7.721,-5.147 6.949,-5.966 6.147,-6.821 5.143,-7.312 4.192,-7.312 v 0 c -0.519,0 -1.002,0.152 -1.416,0.443 0.976,0.259 2.14,0.991 3.05,1.956 0.914,0.977 1.568,2.169 1.765,3.162 0.33,-0.418 0.512,-0.922 0.528,-1.476 M 0.395,-5.151 C 0.584,-5.33 0.781,-5.497 0.984,-5.652 0.958,-5.693 0.918,-5.724 0.899,-5.77 0.738,-6.172 0.668,-7.045 1.43,-7.759 2.191,-8.477 3.146,-8.856 4.192,-8.856 v 0 c 1.367,0 2.772,0.661 3.86,1.811 0.124,-0.07 0.258,-0.135 0.444,-0.219 0.47,-0.213 0.968,-0.346 1.48,-0.397 0.026,-0.002 0.051,-0.004 0.077,-0.004 0.392,0 0.728,0.298 0.767,0.697 0.042,0.424 -0.268,0.802 -0.693,0.844 -0.343,0.033 -0.677,0.123 -0.995,0.268 -0.064,0.029 -0.107,0.048 -0.153,0.07 0.465,0.832 0.71,1.733 0.684,2.606 C 9.629,-2.076 9.189,-1.095 8.391,-0.345 7.91,0.111 7.409,0.207 7.073,0.207 6.709,0.207 6.449,0.095 6.377,0.061 6.327,0.036 6.295,-0.01 6.252,-0.043 6.084,0.15 5.905,0.339 5.715,0.518 3.903,2.215 1.121,2.826 -0.27,1.903 -0.511,1.948 -0.893,1.968 -1.175,1.653 -1.458,1.356 -1.433,1.002 -1.368,0.736 -1.61,0.334 -1.727,-0.185 -1.709,-0.788 c 0.045,-1.496 0.872,-3.21 2.104,-4.363"
           style="fill:#ffffff;fill-opacity:1;fill-rule:nonzero;stroke:none"
           id="path170" /></g><g
         id="g172"
         transform="translate(330.2114,237.8301)"><path
           d="M 0,0 C -1.414,0.816 -2.43,2.36 -1.833,3.854 -1.357,2.961 -0.387,2.009 0.773,1.335 1.904,0.685 3.249,0.296 4.255,0.343 3.386,-0.771 1.578,-0.913 0,0 M 0.644,5.791 C 1.672,7.563 3.684,8.443 4.219,8.139 4.36,8.052 4.5,8.016 4.632,8.012 4.699,7.903 4.795,7.802 4.934,7.722 5.042,7.659 5.197,7.453 5.302,7.061 5.53,6.211 5.441,4.718 4.703,3.443 4.372,2.869 3.957,2.371 3.494,1.973 2.945,2.066 2.246,2.27 1.546,2.672 0.842,3.08 0.322,3.553 -0.031,3.964 0.08,4.576 0.306,5.202 0.644,5.791 m 6.149,1.67 C 6.636,8.045 6.375,8.509 6.027,8.824 6.018,9.065 5.952,9.433 5.601,9.627 5.243,9.849 4.895,9.745 4.647,9.623 3.074,10.122 0.562,8.728 -0.693,6.562 -0.823,6.337 -0.939,6.106 -1.044,5.873 c -0.051,0.02 -0.094,0.055 -0.149,0.064 -0.04,0.005 -0.166,0.014 -0.206,0.014 -0.653,0 -1.252,-0.367 -1.604,-0.98 -1.009,-1.749 -0.539,-3.864 1.02,-5.374 -0.039,-0.035 -0.08,-0.071 -0.137,-0.12 -0.27,-0.235 -0.556,-0.413 -0.876,-0.544 -0.395,-0.162 -0.583,-0.614 -0.421,-1.007 0.123,-0.299 0.411,-0.48 0.715,-0.48 0.098,0 0.197,0.019 0.293,0.059 0.471,0.193 0.909,0.465 1.301,0.805 0.153,0.132 0.263,0.234 0.364,0.338 0.924,-0.528 1.922,-0.809 2.888,-0.809 1.581,0 2.914,0.745 3.654,2.038 C 6.324,0.78 6.008,1.596 5.738,1.936 5.707,1.975 5.659,1.993 5.622,2.025 5.771,2.232 5.911,2.447 6.04,2.672 6.887,4.134 7.183,6.014 6.793,7.461"
           style="fill:#ffffff;fill-opacity:1;fill-rule:nonzero;stroke:none"
           id="path174" /></g><g
         id="g176"
         transform="translate(320.2847,233.4629)"><path
           d="m 0,0 c -0.423,-1.696 -1.606,-2.836 -2.944,-2.836 -0.088,0 -0.176,0.005 -0.264,0.015 0.763,0.736 1.409,1.996 1.711,3.195 0.319,1.278 0.307,2.659 -0.002,3.624 0.732,-0.3 1.125,-0.862 1.332,-1.311 C 0.185,1.923 0.245,0.97 0,0 M -8.76,1.099 C -8.968,1.446 -9.009,1.7 -8.979,1.82 c 0.04,0.154 0.035,0.292 0.003,0.416 0.086,0.094 0.155,0.213 0.188,0.367 0.158,0.619 2.193,1.456 4.175,0.961 0.668,-0.168 1.268,-0.456 1.789,-0.806 0.048,-0.537 0.023,-1.231 -0.171,-2.009 -0.201,-0.799 -0.516,-1.434 -0.811,-1.885 -0.622,-0.06 -1.283,-0.015 -1.939,0.152 -1.429,0.357 -2.565,1.33 -3.015,2.083 M 3.867,1.022 C 3.692,1.413 3.234,1.587 2.846,1.412 2.54,1.274 2.206,1.189 1.852,1.159 1.777,1.152 1.725,1.148 1.672,1.145 1.674,1.923 1.54,2.673 1.236,3.332 0.7,4.497 -0.266,5.308 -1.482,5.614 -2.374,5.837 -3.155,5.383 -3.436,4.982 -3.468,4.937 -3.473,4.883 -3.494,4.833 c -0.242,0.088 -0.49,0.166 -0.744,0.229 -2.408,0.601 -5.137,-0.225 -5.9,-1.705 -0.232,-0.078 -0.576,-0.247 -0.667,-0.658 -0.102,-0.395 0.09,-0.692 0.275,-0.892 -0.016,-0.47 0.134,-0.982 0.445,-1.5 0.767,-1.285 2.324,-2.379 3.963,-2.788 0.252,-0.065 0.506,-0.108 0.76,-0.145 -0.004,-0.051 -0.025,-0.1 -0.018,-0.151 0.055,-0.43 0.42,-1.224 1.433,-1.476 0.332,-0.085 0.67,-0.127 1.002,-0.127 h 10e-4 c 2.05,0 3.827,1.597 4.431,3.973 0.005,0 0.01,-0.001 0.015,-0.001 0.141,0 0.289,0.012 0.484,0.028 0.526,0.046 1.028,0.174 1.492,0.382 0.389,0.175 0.563,0.632 0.389,1.02"
           style="fill:#ffffff;fill-opacity:1;fill-rule:nonzero;stroke:none"
           id="path178" /></g><g
         id="g180"
         transform="translate(358.1396,204.4248)"><path
           d="m 0,0 c 0.853,-0.548 2.18,-0.905 3.595,-0.928 1.306,0 2.589,0.323 3.431,0.835 C 6.789,-1.654 5.159,-2.469 3.555,-2.469 L 3.479,-2.468 C 2.482,-2.455 1.575,-2.153 0.927,-1.618 0.546,-1.305 0.104,-0.781 0,0 m 3.188,6.696 h 0.003 c 0.164,-0.018 0.3,0.03 0.415,0.09 C 3.719,6.722 3.854,6.68 4.017,6.68 4.142,6.679 4.377,6.574 4.66,6.284 5.273,5.655 5.925,4.308 5.904,2.835 5.895,2.154 5.755,1.509 5.535,0.925 5.029,0.755 4.347,0.617 3.53,0.617 H 3.528 C 2.723,0.63 2.044,0.784 1.537,0.969 1.329,1.564 1.205,2.218 1.214,2.901 1.246,4.945 2.57,6.696 3.188,6.696 M 3.49,-4.013 h 0.065 c 2.852,0 5.021,1.838 5.045,4.272 C 8.616,1.305 7.941,1.86 7.54,2.023 7.494,2.041 7.445,2.033 7.397,2.043 7.427,2.297 7.445,2.555 7.448,2.814 7.472,4.506 6.811,6.291 5.765,7.362 5.345,7.793 4.892,8.068 4.433,8.175 4.306,8.382 4.067,8.671 3.646,8.671 3.227,8.683 2.992,8.424 2.838,8.201 1.222,7.866 -0.292,5.423 -0.33,2.924 -0.333,2.662 -0.322,2.403 -0.299,2.146 -0.353,2.139 -0.408,2.148 -0.46,2.129 -0.866,1.979 -1.556,1.444 -1.566,0.4 c -0.017,-1.253 0.52,-2.392 1.51,-3.21 0.559,-0.461 1.25,-0.783 2.002,-0.981 C 1.929,-3.841 1.912,-3.889 1.887,-3.959 1.766,-4.296 1.599,-4.599 1.39,-4.857 1.123,-5.19 1.175,-5.676 1.508,-5.943 1.65,-6.059 1.821,-6.114 1.991,-6.114 c 0.226,0 0.45,0.098 0.602,0.288 0.317,0.393 0.568,0.846 0.748,1.347 0.068,0.19 0.114,0.331 0.149,0.466"
           style="fill:#ffffff;fill-opacity:1;fill-rule:nonzero;stroke:none"
           id="path182" /></g><g
         id="g184"
         transform="translate(355.0767,189.7324)"><path
           d="m 0,0 c -0.275,-0.48 -0.672,-0.838 -1.162,-1.05 0.29,0.969 0.275,2.349 -0.069,3.624 C -1.557,3.762 -2.23,5.01 -3.008,5.734 -1.564,5.91 -0.229,4.764 0.254,2.984 0.552,1.891 0.46,0.803 0,0 m -4.272,-0.687 c -1.418,-0.39 -2.887,-0.095 -3.649,0.34 -0.354,0.202 -0.515,0.406 -0.546,0.518 -0.04,0.156 -0.113,0.277 -0.202,0.371 0.029,0.123 0.031,0.262 -0.014,0.413 -0.166,0.617 1.199,2.34 3.173,2.881 0.656,0.178 1.319,0.236 1.942,0.187 0.308,-0.445 0.631,-1.069 0.847,-1.854 0.211,-0.783 0.248,-1.482 0.209,-2.021 -0.513,-0.362 -1.104,-0.659 -1.76,-0.835 M 2.052,5.606 C 1.847,5.334 1.596,5.096 1.306,4.899 1.245,4.858 1.203,4.831 1.16,4.802 0.303,6.333 -1.126,7.297 -2.711,7.297 -3.069,7.297 -3.43,7.248 -3.783,7.152 -4.79,6.882 -5.135,6.081 -5.181,5.65 -5.187,5.595 -5.164,5.544 -5.158,5.489 -5.411,5.447 -5.665,5.395 -5.917,5.326 c -2.4,-0.658 -4.38,-2.718 -4.314,-4.377 -0.163,-0.179 -0.376,-0.494 -0.259,-0.905 0.107,-0.392 0.418,-0.556 0.676,-0.639 0.217,-0.418 0.599,-0.791 1.125,-1.092 0.835,-0.477 1.915,-0.728 3.012,-0.728 0.611,0 1.227,0.078 1.809,0.237 0.251,0.068 0.495,0.149 0.735,0.241 0.021,-0.044 0.025,-0.093 0.054,-0.133 0.228,-0.308 0.736,-0.667 1.415,-0.667 0.182,0 0.37,0.025 0.557,0.076 1.055,0.285 1.901,0.94 2.447,1.893 C 1.998,0.381 2.144,1.883 1.75,3.356 1.875,3.425 2,3.505 2.171,3.62 2.604,3.913 2.979,4.27 3.286,4.677 3.542,5.018 3.474,5.502 3.133,5.759 2.793,6.015 2.31,5.946 2.052,5.606"
           style="fill:#ffffff;fill-opacity:1;fill-rule:nonzero;stroke:none"
           id="path186" /></g><g
         id="g188"
         transform="translate(394.1372,176.6436)"><path
           d="M 0,0 C -0.227,-0.024 -0.385,0.014 -0.39,0.014 -0.495,0.122 -0.573,0.64 -0.615,0.917 -0.732,1.695 -0.928,2.998 -2.239,3.276 -2.497,3.335 -2.752,3.364 -2.997,3.364 -4.479,3.364 -5.35,2.38 -6.272,1.338 -6.471,1.113 -6.681,0.875 -6.918,0.624 L -7.052,0.478 c -0.634,-0.69 -1.591,-1.734 -3.072,-1.734 -0.405,0 -0.838,0.078 -1.288,0.231 -0.498,0.171 -0.847,0.384 -0.932,0.573 -0.135,0.298 0.157,1.01 0.392,1.582 0.423,1.031 1.13,2.756 -0.365,3.896 -0.52,0.391 -1.096,0.589 -1.714,0.589 -1.568,0 -2.892,-1.25 -4.173,-2.459 -0.19,-0.179 -0.379,-0.357 -0.566,-0.528 -1.026,-0.941 -2.212,-1.46 -3.341,-1.46 -1.315,0 -2.543,0.695 -3.523,1.971 -0.148,0.211 -0.387,0.603 -0.321,0.853 0.135,0.514 1.387,1.114 2.216,1.512 1.429,0.684 3.387,1.623 2.693,3.493 -1.05,2.804 -3.786,2.804 -4.685,2.804 -0.247,0 -0.504,-0.009 -0.779,-0.027 -1.891,-0.129 -3.389,0.562 -4.085,1.861 -0.644,1.201 -0.48,2.742 0.437,4.123 0.959,1.439 2.259,2.265 3.567,2.265 1.295,0 2.451,-0.796 3.25,-2.235 0.706,-1.295 1.87,-3.017 3.818,-3.016 0.457,0 0.929,0.099 1.4,0.294 1.535,0.631 1.311,2.445 1.113,4.045 -0.124,1.008 -0.295,2.388 0.086,2.858 0.041,0.051 0.166,0.204 0.708,0.252 0.261,0.036 0.508,0.053 0.742,0.053 0.779,0 2.848,0 2.865,-4.075 v -0.597 c -0.008,-1.754 -0.016,-3.742 1.046,-4.808 0.495,-0.497 1.205,-0.726 1.902,-0.671 1.701,0.131 2.187,1.758 2.543,2.945 0.524,1.746 0.727,1.754 1.407,1.561 1.476,-0.42 1.802,-1.84 2.029,-3.384 l 0.126,-0.856 c 0.244,-1.751 0.497,-3.561 2.592,-4.033 0.121,-0.025 0.244,-0.038 0.366,-0.038 h 0.001 c 1.08,0 1.654,0.911 2.073,1.576 0.156,0.248 0.418,0.663 0.458,0.722 0,0 0.06,-0.011 0.183,-0.088 C 2.611,10.21 3.39,9.166 3.378,5.791 2.817,5.885 2.225,5.982 1.576,6.085 c -8.556,1.5 -19.38,5.777 -22.936,7.183 -1.113,0.439 -1.113,0.439 -1.221,0.439 -0.113,0 -0.216,-0.049 -0.288,-0.128 v 10e-4 c -0.028,-0.031 -0.05,-0.065 -0.067,-0.102 -0.016,-0.037 -0.027,-0.077 -0.031,-0.118 -0.006,-0.056 0,-0.114 0.018,-0.168 C -22.701,12.468 -8.702,5.799 1.19,4.055 1.841,3.951 2.447,3.857 3.032,3.77 1.967,0.834 0.812,0.085 0,0 m 9.603,3.033 c 0.523,0 1.003,0.031 1.121,0.403 0.018,0.055 0.024,0.112 0.02,0.168 0.008,0.027 0.013,0.057 0.016,0.088 0.028,0.356 0.048,0.75 -5.066,1.694 0.049,1.873 -0.056,5.631 -2.33,7.093 -0.473,0.301 -0.949,0.453 -1.415,0.453 -1.297,0 -1.981,-1.085 -2.433,-1.803 -0.075,-0.119 -0.172,-0.274 -0.258,-0.396 -0.223,0.176 -0.33,0.618 -0.52,1.976 l -0.128,0.874 c -0.211,1.431 -0.649,4.41 -3.69,5.274 -0.381,0.109 -0.747,0.163 -1.086,0.163 -2.187,0 -2.803,-2.058 -3.171,-3.288 -0.132,-0.44 -0.353,-1.178 -0.581,-1.307 -0.387,0.315 -0.379,2.313 -0.375,3.167 l 10e-4,0.619 c -0.018,4.055 -1.907,6.38 -5.182,6.38 -0.337,0 -0.693,-0.026 -0.998,-0.069 -0.971,-0.083 -1.729,-0.451 -2.251,-1.094 -1.002,-1.235 -0.78,-3.023 -0.586,-4.601 0.067,-0.541 0.164,-1.323 0.119,-1.685 -0.121,-0.036 -0.232,-0.053 -0.333,-0.053 -0.537,-10e-4 -1.121,0.591 -1.789,1.816 -1.212,2.183 -3.137,3.435 -5.279,3.435 -2.096,0 -4.099,-1.202 -5.495,-3.3 -1.399,-2.103 -1.604,-4.533 -0.551,-6.5 1.04,-1.939 3.161,-3.098 5.673,-3.098 0.201,0 0.406,0.007 0.608,0.021 0.216,0.014 0.424,0.021 0.625,0.021 1.55,0 2.12,-0.419 2.435,-1.105 -0.288,-0.233 -0.97,-0.56 -1.444,-0.786 -1.429,-0.686 -3.048,-1.461 -3.455,-3.012 -0.231,-0.879 -0.008,-1.81 0.693,-2.811 1.851,-2.413 3.953,-2.918 5.391,-2.918 1.71,0 3.453,0.735 4.905,2.068 0.195,0.178 0.393,0.363 0.592,0.552 0.817,0.77 1.935,1.827 2.583,1.827 0.078,0 0.177,-0.015 0.311,-0.088 0.037,-0.196 -0.221,-0.825 -0.375,-1.201 -0.404,-0.986 -0.907,-2.211 -0.359,-3.419 0.371,-0.817 1.121,-1.407 2.295,-1.809 0.691,-0.235 1.376,-0.354 2.035,-0.354 2.499,0 4.039,1.677 4.778,2.484 l 0.118,0.128 c 0.249,0.264 0.477,0.521 0.691,0.763 0.724,0.818 1.12,1.245 1.54,1.245 h 0.011 c 0.03,-0.144 0.059,-0.333 0.081,-0.476 0.138,-0.918 0.431,-3.155 3.148,-2.876 2.191,0.23 3.906,2.172 5.115,5.74 C 7.347,3.168 8.769,3.033 9.603,3.033"
           style="fill:#ffffff;fill-opacity:1;fill-rule:nonzero;stroke:none"
           id="path190" /></g><g
         id="g192"
         transform="translate(334.21,347.2451)"><path
           d="M 0,0 C 0.104,0.265 0.23,0.307 0.227,0.327 0.429,0.327 0.765,0.214 1.062,0.115 1.494,-0.03 1.94,-0.18 2.42,-0.18 3.168,-0.179 3.624,0.185 3.883,0.5 5.123,2.051 4.534,3.543 3.965,4.987 3.871,5.225 3.772,5.477 3.671,5.748 L 3.604,5.926 c -0.547,1.442 -0.954,2.979 0.539,4.486 0.522,0.492 0.805,0.545 0.903,0.545 0.322,0 0.822,-0.58 1.223,-1.045 C 6.912,9.167 7.712,8.239 8.9,8.239 9.222,8.24 9.542,8.31 9.829,8.438 c 2.536,1.06 1.646,3.996 1.056,5.938 -0.088,0.291 -0.175,0.577 -0.259,0.878 -0.42,1.393 -0.332,2.651 0.255,3.638 0.61,1.023 1.754,1.734 3.274,2.05 0.146,0.025 0.279,0.038 0.402,0.038 0.307,0 0.391,-0.084 0.419,-0.112 0.367,-0.37 0.357,-1.733 0.35,-2.635 -0.012,-1.583 -0.029,-3.752 1.913,-3.928 2.663,-0.267 3.918,1.69 4.803,3.617 0.727,1.693 2.036,2.703 3.502,2.703 1.306,0 2.546,-0.812 3.318,-2.171 0.871,-1.538 1.002,-3.076 0.36,-4.218 C 28.631,13.187 27.445,12.582 25.911,12.534 22.223,12.519 21.32,10.648 21.212,9.065 21.121,7.412 22.87,6.809 24.274,6.324 25.177,6.013 26.415,5.586 26.667,5.056 26.697,4.993 26.788,4.801 26.596,4.275 26.008,2.448 24.934,2.236 24.177,2.236 c -0.754,0 -1.689,0.256 -2.682,0.729 l -0.393,0.199 c -1.239,0.629 -2.642,1.342 -3.887,1.342 -1.048,0 -1.869,-0.502 -2.322,-1.441 -0.704,-1.551 0.565,-2.759 1.405,-3.559 0.415,-0.395 1.043,-0.992 1.05,-1.307 0.003,-0.12 -0.119,-0.322 -0.357,-0.571 -0.452,-0.508 -0.993,-0.746 -1.702,-0.746 -0.737,0 -1.508,0.259 -2.071,0.448 l -0.955,0.316 c -0.881,0.299 -1.641,0.557 -2.395,0.557 -0.882,0 -1.614,-0.359 -2.164,-1.053 C 6.865,-3.874 7.543,-5.012 7.947,-5.692 8.073,-5.904 8.274,-6.241 8.327,-6.422 8.305,-6.44 8.273,-6.463 8.23,-6.488 7.992,-6.622 7.678,-6.69 7.297,-6.69 c -1.191,0 -2.641,0.629 -3.626,1.13 0.824,0.97 1.886,2.249 3.27,3.949 5.142,6.291 13.327,13.401 16.944,16.289 l 0.094,0.066 c 1.405,0.993 1.405,0.993 1.423,1.211 l 0.013,0.154 -0.214,0.269 h -0.189 c -0.151,0 -0.234,0 -1.591,-1.082 C 20.298,13.09 10.835,6.404 5.36,-0.276 3.922,-2.042 2.869,-3.401 2.098,-4.453 -0.266,-1.984 -0.245,-0.616 0,0 M 0.124,-8.204 0.269,-8.427 0.29,-8.556 h 0.362 c 0.166,0 0.347,0.003 1.45,1.204 1.434,-0.773 3.374,-1.655 5.195,-1.655 0.786,0 1.482,0.169 2.086,0.51 0.645,0.377 1.052,0.873 1.207,1.475 0.256,0.989 -0.269,1.871 -0.652,2.514 -0.066,0.112 -0.151,0.255 -0.218,0.379 0.323,0.095 1.006,-0.149 1.8,-0.418 l 0.962,-0.32 c 0.674,-0.226 1.692,-0.567 2.807,-0.567 1.38,0 2.536,0.513 3.404,1.492 0.661,0.69 0.988,1.428 0.971,2.194 -0.029,1.276 -0.994,2.194 -1.769,2.932 -0.292,0.278 -0.769,0.732 -0.872,0.96 0.029,0.038 0.068,0.046 0.192,0.046 0.69,0 1.881,-0.605 2.837,-1.091 l 0.425,-0.215 c 4.028,-1.919 7.195,-0.823 8.31,2.638 0.338,0.926 0.329,1.777 -0.029,2.529 -0.669,1.408 -2.295,1.969 -3.728,2.463 -0.49,0.169 -1.201,0.415 -1.488,0.605 0.066,0.476 0.367,1.09 2.41,1.099 2.372,0.074 4.3,1.124 5.289,2.883 1.05,1.866 0.917,4.233 -0.364,6.496 -1.189,2.094 -3.182,3.344 -5.333,3.344 -2.422,0 -4.527,-1.534 -5.618,-4.078 -0.863,-1.877 -1.49,-2.261 -2.219,-2.265 -0.074,0.37 -0.069,1.104 -0.065,1.618 0.012,1.513 0.025,3.229 -1.022,4.284 -0.361,0.363 -1.012,0.797 -2.063,0.797 -0.251,0 -0.52,-0.025 -0.835,-0.08 C 11.512,22.759 9.841,21.673 8.891,20.076 7.962,18.516 7.795,16.617 8.401,14.61 8.482,14.316 8.575,14.012 8.668,13.703 9.146,12.13 9.495,10.809 8.921,10.554 8.73,10.605 8.288,11.118 8.023,11.425 7.313,12.249 6.429,13.273 5.046,13.273 4.208,13.273 3.394,12.889 2.526,12.07 -0.171,9.349 0.957,6.375 1.438,5.105 L 1.5,4.941 C 1.605,4.656 1.71,4.389 1.81,4.137 2.292,2.913 2.398,2.518 2.227,2.175 2.092,2.212 1.924,2.269 1.797,2.312 1.333,2.467 0.806,2.643 0.227,2.643 -0.401,2.643 -1.546,2.409 -2.155,0.849 -2.973,-1.208 -1.981,-3.646 0.767,-6.394 -0.078,-7.76 0.043,-8.035 0.124,-8.204"
           style="fill:#ffffff;fill-opacity:1;fill-rule:nonzero;stroke:none"
           id="path194" /></g><g
         id="g196"
         transform="translate(343.4292,205.8711)"><path
           d="M 0,0 C -0.767,0 -1.506,-0.263 -2.362,-0.566 -2.61,-0.655 -2.874,-0.749 -3.146,-0.839 l -0.235,-0.078 c -0.535,-0.178 -1.265,-0.422 -2.041,-0.422 -0.941,0 -1.739,0.371 -2.398,1.087 -0.335,0.406 -0.514,0.766 -0.491,0.983 0.036,0.339 0.626,0.808 1.101,1.185 0.903,0.717 2.268,1.801 1.609,3.496 -0.255,0.678 -0.97,1.816 -2.886,1.816 -0.967,0 -2.011,-0.273 -3.02,-0.537 -0.294,-0.077 -0.582,-0.152 -0.887,-0.224 -0.518,-0.136 -1.022,-0.204 -1.498,-0.204 -2.211,0 -3.634,1.42 -4.007,3.98 -0.051,0.387 -0.02,0.678 0.085,0.797 0.098,0.111 0.425,0.299 1.516,0.299 0.378,0 0.767,-0.021 1.145,-0.039 0.397,-0.021 0.783,-0.039 1.138,-0.039 1.743,0 2.703,0.605 2.848,1.757 0.455,2.776 -1.642,4.096 -3.456,4.905 -1.579,0.826 -2.519,2.171 -2.514,3.597 0.005,1.349 0.825,2.544 2.251,3.279 1.875,0.964 3.809,0.861 4.86,-0.241 0.653,-0.686 0.966,-1.707 0.904,-3.03 0.048,-2.847 1.162,-4.434 3.358,-4.723 l 0.176,-0.008 c 1.528,0 2.148,1.578 2.694,2.971 0.417,1.06 0.936,2.38 1.58,2.38 0.142,0 0.323,-0.044 0.544,-0.134 0.941,-0.368 1.519,-0.87 1.768,-1.535 0.335,-0.897 0.097,-2.166 -0.677,-3.644 L 0.107,16.449 c -0.852,-1.526 -1.818,-3.256 -1.382,-4.725 0.187,-0.63 0.611,-1.135 1.234,-1.463 0.315,-0.162 0.649,-0.245 0.994,-0.245 1.082,0 1.907,0.799 2.634,1.505 0.406,0.393 1.019,0.988 1.315,0.988 0.079,0 0.254,-0.093 0.539,-0.406 C 6.528,11.04 6.146,9.704 5.622,8.313 L 5.297,7.445 C 4.708,5.885 4.097,4.271 5.569,2.848 5.9,2.543 6.315,2.382 6.77,2.382 h 0.001 c 0.606,0 1.151,0.289 1.632,0.544 C 8.643,3.054 9.046,3.267 9.1,3.3 9.1,3.299 9.146,3.262 9.23,3.109 9.46,2.718 9.766,1.485 7.949,-1.634 c -0.922,0.866 -2.114,1.97 -3.685,3.41 -4.389,3.897 -9.75,10.037 -15.932,18.251 -0.693,0.92 -0.693,0.92 -0.898,0.92 -0.047,0 -0.094,-0.009 -0.138,-0.025 -0.126,-0.048 -0.222,-0.165 -0.246,-0.298 C -13.088,19.87 -4.57,6.868 2.854,0.256 4.335,-1.102 5.602,-2.208 6.663,-3.078 5.232,-4.282 4.008,-4.899 3.022,-4.899 c -0.247,0.001 -0.469,0.04 -0.652,0.111 -0.209,0.087 -0.295,0.162 -0.302,0.163 -0.031,0.15 0.157,0.636 0.259,0.896 0.284,0.731 0.76,1.954 -0.194,2.833 C 1.52,-0.302 0.802,0 0,0 m 3.022,-7.216 v 0 c 2.263,0 4.406,1.694 5.523,2.696 0.83,-0.574 1.419,-0.872 1.749,-0.872 0.285,0 0.413,0.168 0.455,0.242 0.008,0.013 0.015,0.028 0.021,0.045 0.052,0.046 0.092,0.101 0.11,0.157 0.07,0.215 0.103,0.359 -1.214,1.668 0.82,1.332 3.043,5.036 1.577,7.538 C 10.634,5.354 9.792,5.584 9.192,5.584 8.471,5.584 7.831,5.245 7.317,4.972 7.218,4.92 7.093,4.854 6.986,4.799 6.918,5.061 7.039,5.503 7.464,6.626 l 0.325,0.869 c 0.458,1.213 1.531,4.055 -0.677,6.211 -0.67,0.742 -1.413,1.119 -2.21,1.119 -1.234,0 -2.173,-0.91 -2.927,-1.641 C 1.663,12.881 1.141,12.375 0.95,12.37 c -0.243,0.402 0.828,2.32 1.18,2.95 l 0.232,0.418 c 1.115,2.131 1.386,3.999 0.805,5.552 -0.485,1.298 -1.525,2.267 -3.071,2.872 -0.486,0.201 -0.96,0.303 -1.41,0.303 -2.224,0 -3.097,-2.226 -3.735,-3.851 -0.192,-0.487 -0.469,-1.192 -0.674,-1.473 -0.463,0.098 -1.049,0.444 -1.084,2.35 0.092,1.896 -0.441,3.508 -1.542,4.664 -1.747,1.834 -4.817,2.135 -7.597,0.703 -2.189,-1.127 -3.5,-3.119 -3.508,-5.331 -0.007,-2.307 1.397,-4.423 3.822,-5.688 1.976,-0.884 2.258,-1.536 2.206,-2.228 -0.243,-0.037 -0.932,-0.033 -1.61,0.002 -0.417,0.021 -0.846,0.042 -1.262,0.042 -1.073,0 -2.412,-0.124 -3.257,-1.087 -0.569,-0.648 -0.784,-1.532 -0.638,-2.642 0.536,-3.689 2.951,-5.98 6.301,-5.98 0.673,0 1.373,0.094 2.057,0.273 0.295,0.069 0.603,0.149 0.914,0.231 0.867,0.227 1.765,0.461 2.434,0.461 0.6,0 0.663,-0.167 0.735,-0.326 C -7.809,4.398 -8.336,3.98 -8.651,3.73 -9.464,3.084 -10.477,2.28 -10.615,0.976 c -0.093,-0.882 0.236,-1.766 1.047,-2.747 1.148,-1.25 2.543,-1.884 4.146,-1.884 1.152,0 2.128,0.326 2.774,0.541 l 0.22,0.073 c 0.299,0.099 0.578,0.198 0.842,0.292 0.654,0.232 1.219,0.433 1.586,0.433 0.1,0 0.202,-0.009 0.341,-0.1 C 0.296,-2.56 0.223,-2.748 0.168,-2.888 -0.152,-3.71 -1.001,-5.893 1.505,-6.937 1.981,-7.122 2.492,-7.215 3.022,-7.216"
           style="fill:#ffffff;fill-opacity:1;fill-rule:nonzero;stroke:none"
           id="path198" /></g><g
         id="g200"
         transform="translate(309.4448,254.4648)"><path
           d="m 0,0 c -0.163,0.737 -0.04,0.994 0.001,1.055 0.176,0.257 0.947,0.382 1.51,0.473 1.084,0.175 2.897,0.467 3.091,2.327 0.234,2.661 -2.56,3.417 -4.601,3.969 -0.249,0.068 -0.496,0.135 -0.739,0.205 -1.406,0.401 -2.477,1.202 -3.017,2.258 -0.538,1.051 -0.551,2.356 -0.064,3.707 0.303,0.703 0.555,0.703 0.662,0.703 0.566,0 1.513,-0.604 2.274,-1.091 0.967,-0.617 1.881,-1.201 2.801,-1.201 0.615,0 1.163,0.266 1.57,0.784 1.864,2.578 0.07,5.127 -0.511,5.955 C 1.953,20.635 1.741,22.2 2.394,23.44 2.998,24.588 4.25,25.246 5.83,25.246 L 6.027,25.243 C 7.795,25.18 9.236,24.437 9.882,23.257 10.455,22.21 10.346,20.915 9.568,19.6 9.007,18.623 7.298,15.651 9.99,13.817 c 0.322,-0.235 0.706,-0.36 1.109,-0.36 H 11.1 c 0.986,10e-4 1.851,0.697 2.852,1.504 0.726,0.585 1.719,1.386 2.312,1.386 0.085,0 0.285,0 0.643,-0.478 0.696,-0.813 0.994,-1.581 0.886,-2.279 -0.14,-0.91 -0.966,-1.86 -2.385,-2.742 L 14.92,10.551 C 13.406,9.636 11.691,8.599 11.397,7.101 11.27,6.45 11.428,5.804 11.843,5.245 12.155,4.812 12.75,4.297 13.815,4.297 c 0.605,0 1.22,0.163 1.815,0.32 0.49,0.13 0.997,0.265 1.37,0.265 0.257,0 0.442,0 0.615,-0.621 C 18.012,2.822 16.994,1.828 15.824,0.854 L 15.161,0.3 c -1.326,-1.1 -2.697,-2.236 -2.028,-4.237 0.439,-1.243 1.762,-1.26 2.552,-1.271 0.247,-0.003 0.641,-0.009 0.824,-0.058 0.004,-0.031 0.006,-0.073 0.005,-0.13 -0.014,-0.572 -0.49,-1.752 -3.329,-3.472 -0.391,1.181 -0.911,2.677 -1.615,4.613 C 8.917,3.347 7.416,13.844 6.775,18.326 6.429,20.742 6.429,20.742 6.054,20.742 L 5.734,20.577 C 5.367,20.061 6.164,4.993 9.606,-4.909 c 0.725,-1.992 1.306,-3.507 1.783,-4.686 -0.617,-0.13 -1.426,-0.263 -2.236,-0.263 -1.207,0 -2.038,0.287 -2.47,0.853 -0.162,0.212 -0.181,0.317 -0.183,0.317 0.041,0.143 0.428,0.468 0.636,0.643 0.594,0.499 1.588,1.336 1.151,2.581 -0.622,1.864 -2.195,2.137 -3.715,2.401 -0.289,0.05 -0.596,0.103 -0.923,0.17 L 3.457,-2.854 C 1.965,-2.562 0.469,-2.1 0,0 M 3.184,-5.162 C 3.533,-5.233 3.864,-5.291 4.176,-5.346 5.4,-5.558 5.794,-5.671 5.987,-5.975 5.885,-6.07 5.749,-6.185 5.645,-6.271 4.985,-6.826 3.233,-8.3 4.841,-10.41 c 0.894,-1.171 2.345,-1.765 4.312,-1.765 1.25,0 2.438,0.242 3.168,0.416 0.83,-1.761 1.108,-1.775 1.319,-1.775 0.138,0 0.262,0.061 0.346,0.166 l 0.164,0.086 c 0.1,0.144 0.236,0.355 -0.26,2.137 1.516,0.86 4.874,2.931 4.94,5.699 0.015,0.746 -0.197,1.35 -0.628,1.797 -0.711,0.734 -1.737,0.748 -2.486,0.757 -0.127,0.002 -0.291,0.004 -0.429,0.012 0.05,0.265 0.369,0.581 1.352,1.397 l 0.667,0.557 c 1.093,0.91 3.369,2.805 2.541,5.806 C 19.431,6.374 18.42,7.197 17,7.197 c -0.674,0 -1.359,-0.18 -1.963,-0.341 -0.452,-0.119 -0.919,-0.243 -1.223,-0.243 -0.094,0 -0.13,0.013 -0.144,0.042 0.082,0.484 1.741,1.486 2.449,1.913 l 0.509,0.311 c 2.042,1.27 3.205,2.736 3.455,4.357 0.215,1.396 -0.261,2.788 -1.366,4.076 -0.828,1.117 -1.791,1.351 -2.453,1.351 -1.41,0 -2.661,-1.009 -3.765,-1.898 -0.416,-0.335 -1.021,-0.823 -1.31,-0.958 -0.379,0.288 -0.685,0.773 0.38,2.627 1.185,2.004 1.311,4.169 0.345,5.934 -1.041,1.904 -3.211,3.097 -5.806,3.19 L 5.83,27.562 c -2.432,0 -4.482,-1.137 -5.486,-3.042 -1.051,-1.997 -0.781,-4.497 0.73,-6.698 1.188,-1.689 1.024,-2.504 0.684,-3.059 -0.347,0.127 -0.964,0.521 -1.395,0.797 -1.067,0.681 -2.277,1.454 -3.52,1.454 -0.859,0 -2.04,-0.366 -2.814,-2.166 C -6.708,12.812 -6.655,10.869 -5.817,9.231 -4.982,7.599 -3.403,6.38 -1.376,5.802 -1.125,5.729 -0.866,5.659 -0.604,5.589 1.075,5.135 2.354,4.733 2.327,4.11 2.181,3.982 1.531,3.878 1.143,3.815 0.108,3.648 -1.178,3.44 -1.915,2.356 -2.412,1.625 -2.525,0.69 -2.261,-0.503 -1.422,-4.257 1.684,-4.867 3.011,-5.127 Z"
           style="fill:#ffffff;fill-opacity:1;fill-rule:nonzero;stroke:none"
           id="path202" /></g><g
         id="g204"
         transform="translate(310.3989,309.7563)"><path
           d="M 0,0 C 0.285,0.96 0.573,0.96 0.711,0.96 1.056,0.96 1.557,0.777 2.041,0.601 2.67,0.372 3.321,0.135 3.994,0.135 v 0 c 0.78,0 1.434,0.324 1.867,0.906 C 7.592,3.198 5.394,5.327 3.939,6.736 3.722,6.947 3.508,7.154 3.292,7.373 2.217,8.425 1.655,9.648 1.709,10.818 c 0.054,1.16 0.71,2.284 1.897,3.248 0.388,0.314 0.603,0.348 0.678,0.348 0.491,0 1.221,-1.34 1.657,-2.14 0.713,-1.308 1.45,-2.66 2.799,-2.66 h 10e-4 c 0.267,0 0.531,0.059 0.736,0.152 2.794,1.105 2.563,3.967 2.439,5.506 -0.117,1.413 0.241,2.648 1.006,3.479 1.113,1.208 3.014,1.353 4.701,0.327 1.511,-0.921 2.4,-2.265 2.379,-3.594 -0.018,-1.187 -0.761,-2.257 -2.09,-3.012 -3.278,-1.855 -2.91,-4.105 -2.374,-5.333 0.255,-0.517 0.833,-1.133 2.137,-1.133 0.582,0 1.215,0.112 1.884,0.23 0.642,0.114 1.305,0.23 1.86,0.23 0.926,0 1.07,-0.271 1.163,-0.852 C 22.749,4.591 22.605,3.788 22.157,3.228 21.571,2.494 20.394,2.054 18.773,1.957 L 18.333,1.939 C 16.571,1.873 14.574,1.797 13.534,0.665 13.092,0.184 12.876,-0.433 12.913,-1.16 c 0.144,-1.697 1.842,-2.132 2.965,-2.42 1.779,-0.455 1.737,-0.632 1.579,-1.296 -0.339,-1.455 -1.706,-1.825 -3.197,-2.104 l -0.925,-0.18 c -1.653,-0.318 -3.362,-0.646 -3.749,-2.674 -0.244,-1.307 0.905,-1.97 1.591,-2.367 0.208,-0.119 0.536,-0.309 0.674,-0.439 -0.012,-0.027 -0.029,-0.061 -0.055,-0.104 -0.313,-0.507 -1.336,-1.334 -4.646,-1.447 0.258,1.271 0.578,2.931 0.991,5.125 1.357,7.818 5.219,17.626 6.868,21.814 0.935,2.377 0.935,2.377 0.685,2.624 -0.068,0.054 -0.156,0.085 -0.243,0.085 -0.934,0 -7.665,-14.542 -9.34,-24.121 -0.425,-2.263 -0.693,-3.957 -0.858,-5.248 -3.11,0.994 -3.731,2.141 -3.809,2.774 -0.036,0.271 0.003,0.369 0.002,0.369 0.103,0.108 0.611,0.205 0.883,0.257 0.761,0.145 2.035,0.388 2.276,1.687 0.378,1.956 -0.889,2.974 -2.114,3.958 -0.216,0.174 -0.444,0.357 -0.679,0.556 L 1.67,-4.192 C 0.497,-3.207 -0.598,-2.072 0,0 m 0.181,-5.966 0.132,-0.112 c 0.254,-0.214 0.498,-0.41 0.727,-0.594 1.004,-0.807 1.296,-1.101 1.313,-1.469 -0.139,-0.035 -0.321,-0.07 -0.458,-0.096 -0.846,-0.161 -3.093,-0.591 -2.749,-3.196 0.266,-2.137 2.258,-3.754 5.889,-4.825 -0.056,-1.412 0.143,-1.667 0.241,-1.785 0.082,-0.099 0.28,-0.201 0.421,-0.182 0.041,-0.015 0.079,-0.023 0.118,-0.022 0.263,0 0.425,0.026 0.832,1.727 1.658,0.008 5.63,0.147 7.127,2.571 0.388,0.645 0.506,1.277 0.35,1.881 -0.255,0.988 -1.142,1.5 -1.789,1.873 -0.105,0.061 -0.239,0.139 -0.353,0.211 0.174,0.196 0.6,0.32 1.79,0.549 l 0.914,0.178 c 1.292,0.241 4.315,0.807 5.025,3.85 0.727,3.052 -1.965,3.74 -3.259,4.072 -0.388,0.099 -1.019,0.261 -1.225,0.408 0.004,0.015 0.009,0.021 0.014,0.026 0.385,0.42 2.203,0.488 3.18,0.526 l 0.472,0.018 c 2.345,0.141 4.052,0.86 5.073,2.138 0.875,1.094 1.179,2.509 0.903,4.201 -0.167,1.046 -0.836,2.801 -3.45,2.801 -0.758,0 -1.557,-0.141 -2.262,-0.265 -0.567,-0.101 -1.102,-0.195 -1.482,-0.195 -0.049,0 -0.089,0.002 -0.122,0.004 -0.156,0.461 -0.167,1.186 1.501,2.13 2.043,1.161 3.233,2.98 3.264,4.991 0.035,2.158 -1.27,4.254 -3.49,5.609 -2.626,1.596 -5.765,1.266 -7.61,-0.737 C 10.009,19.008 9.437,17.148 9.607,15.084 9.773,13.019 9.501,12.366 8.812,12.006 8.569,12.292 8.22,12.933 7.976,13.382 7.163,14.874 6.151,16.73 4.284,16.73 3.575,16.73 2.856,16.44 2.146,15.865 0.431,14.471 -0.521,12.762 -0.605,10.924 -0.689,9.086 0.119,7.237 1.656,5.733 1.869,5.517 2.097,5.296 2.327,5.073 3.497,3.939 4.434,2.963 3.994,2.451 c -0.265,0 -0.74,0.174 -1.16,0.326 -0.642,0.234 -1.369,0.499 -2.123,0.499 -0.983,0 -2.29,-0.454 -2.934,-2.626 -1.069,-3.701 1.365,-5.744 2.404,-6.616"
           style="fill:#ffffff;fill-opacity:1;fill-rule:nonzero;stroke:none"
           id="path206" /></g><g
         id="g208"
         transform="translate(504.0088,340.9072)"><path
           d="M 0,0 C 0.662,-0.766 1.834,-1.496 3.094,-1.893 3.846,-2.126 4.64,-2.25 5.389,-2.25 c 0.315,0 0.827,0.024 1.322,0.151 C 6.265,-3.036 5.289,-3.583 4.028,-3.583 3.57,-3.583 3.1,-3.509 2.629,-3.361 1.678,-3.066 0.896,-2.518 0.427,-1.819 0.151,-1.408 -0.124,-0.779 0,0 M 1.993,2.428 C 2.61,4.385 4.389,5.68 4.982,5.497 5.136,5.447 5.275,5.445 5.399,5.469 5.488,5.378 5.604,5.299 5.758,5.249 5.877,5.212 6.072,5.044 6.261,4.686 6.669,3.909 6.908,2.433 6.467,1.024 6.267,0.379 5.949,-0.198 5.571,-0.697 5.509,-0.699 5.456,-0.706 5.389,-0.706 c -0.596,0 -1.231,0.1 -1.833,0.287 -0.778,0.245 -1.389,0.592 -1.823,0.917 -0.025,0.627 0.058,1.287 0.26,1.93 M 0.782,-4.193 C 0.753,-4.235 0.723,-4.275 0.68,-4.335 0.463,-4.627 0.216,-4.87 -0.054,-5.055 c -0.351,-0.241 -0.441,-0.722 -0.2,-1.073 0.15,-0.219 0.392,-0.335 0.638,-0.335 0.15,0 0.303,0.044 0.435,0.135 0.411,0.282 0.782,0.642 1.104,1.077 0.121,0.164 0.205,0.286 0.278,0.408 0.608,-0.187 1.223,-0.285 1.827,-0.285 2.088,0 3.733,1.117 4.291,2.913 0.312,1 -0.176,1.724 -0.514,1.995 -0.039,0.031 -0.089,0.037 -0.132,0.06 0.1,0.236 0.191,0.477 0.267,0.725 C 8.447,2.18 8.324,4.08 7.628,5.404 7.347,5.939 6.989,6.334 6.585,6.564 6.523,6.799 6.378,7.142 5.986,7.258 5.59,7.394 5.274,7.217 5.061,7.044 3.42,7.172 1.271,5.275 0.521,2.892 0.442,2.643 0.379,2.391 0.327,2.139 0.275,2.146 0.226,2.171 0.173,2.167 -0.26,2.14 -1.076,1.829 -1.387,0.831 -1.76,-0.367 -1.571,-1.613 -0.855,-2.68 -0.451,-3.283 0.119,-3.788 0.782,-4.193"
           style="fill:#ffffff;fill-opacity:1;fill-rule:nonzero;stroke:none"
           id="path210" /></g><g
         id="g212"
         transform="translate(494.9199,327.4814)"><path
           d="M 0,0 C 0.57,0.867 0.927,2.207 0.956,3.493 0.983,4.81 0.668,6.152 0.155,7.025 1.577,6.777 2.544,5.343 2.499,3.456 2.458,1.575 1.425,0.175 0,0 m -2.888,1.228 c -1.47,0.032 -2.793,0.731 -3.399,1.366 -0.281,0.295 -0.378,0.534 -0.375,0.651 0.006,0.161 -0.029,0.298 -0.089,0.414 0.063,0.109 0.104,0.24 0.104,0.398 0.016,0.639 1.829,1.9 3.861,1.859 C -2.097,5.9 -1.448,5.752 -0.865,5.523 -0.7,5.01 -0.571,4.329 -0.587,3.527 -0.606,2.703 -0.774,2.015 -0.97,1.508 -1.557,1.312 -2.21,1.211 -2.888,1.228 M 4.039,3.391 C 4.177,3.421 4.321,3.461 4.52,3.524 5.016,3.684 5.476,3.918 5.885,4.219 6.229,4.472 6.303,4.955 6.05,5.299 5.797,5.642 5.313,5.717 4.971,5.463 4.695,5.261 4.384,5.103 4.05,4.996 3.977,4.972 3.925,4.957 3.874,4.941 3.393,7.058 1.821,8.558 -0.249,8.606 -1.257,8.606 -1.794,7.948 -1.953,7.558 -1.974,7.508 -1.967,7.454 -1.976,7.401 -2.231,7.433 -2.49,7.454 -2.752,7.459 -5.259,7.509 -7.723,6.104 -8.133,4.493 -8.342,4.365 -8.638,4.123 -8.637,3.7 c -0.01,-0.406 0.241,-0.652 0.465,-0.805 0.089,-0.462 0.35,-0.929 0.768,-1.367 1.034,-1.083 2.793,-1.807 4.482,-1.844 0.059,-0.001 0.116,-0.002 0.174,-0.002 0.2,0 0.398,0.012 0.596,0.027 0.007,-0.049 -0.002,-0.1 0.015,-0.148 0.15,-0.408 0.681,-1.103 1.723,-1.123 0.007,0 0.102,-10e-4 0.108,-10e-4 2.448,0 4.271,2.084 4.345,4.954"
           style="fill:#ffffff;fill-opacity:1;fill-rule:nonzero;stroke:none"
           id="path214" /></g><g
         id="g216"
         transform="translate(504.3516,288.9355)"><path
           d="M 0,0 C -0.098,0.395 -0.062,0.65 0,0.754 0.084,0.89 0.12,1.024 0.126,1.152 0.236,1.217 0.337,1.312 0.413,1.45 0.744,1.994 2.932,2.199 4.69,1.146 5.272,0.795 5.772,0.357 6.167,-0.126 6.058,-0.657 5.83,-1.323 5.412,-2.021 4.985,-2.726 4.498,-3.238 4.077,-3.582 3.468,-3.46 2.852,-3.224 2.275,-2.876 1.012,-2.115 0.21,-0.852 0,0 M 8.683,-0.993 C 8.794,-1.826 8.572,-2.756 8.055,-3.613 7.117,-5.175 5.478,-5.936 4.161,-5.37 c 0.896,0.454 1.877,1.402 2.573,2.552 0.679,1.132 1.072,2.456 1.059,3.468 0.611,-0.5 0.823,-1.153 0.89,-1.643 m -5.647,-5.53 c 0.641,-0.389 1.337,-0.586 2.069,-0.586 1.652,0 3.241,1.001 4.256,2.674 0.137,-0.042 0.283,-0.077 0.485,-0.12 0.333,-0.071 0.666,-0.106 0.996,-0.106 0.179,0 0.355,0.011 0.531,0.031 0.424,0.05 0.727,0.434 0.677,0.857 -0.05,0.424 -0.442,0.728 -0.857,0.676 -0.337,-0.04 -0.68,-0.02 -1.026,0.052 -0.075,0.016 -0.126,0.027 -0.178,0.039 0.23,0.744 0.321,1.5 0.224,2.219 C 10.041,0.485 9.355,1.543 8.28,2.191 7.952,2.39 7.607,2.489 7.257,2.489 6.682,2.489 6.3,2.216 6.229,2.16 6.186,2.126 6.165,2.075 6.13,2.033 5.924,2.188 5.71,2.334 5.486,2.469 3.353,3.749 0.503,3.759 -0.658,2.563 -0.902,2.557 -1.278,2.494 -1.491,2.128 -1.703,1.779 -1.606,1.44 -1.487,1.195 -1.64,0.75 -1.645,0.217 -1.5,-0.37 -1.141,-1.823 0.028,-3.326 1.478,-4.198 1.699,-4.332 1.927,-4.452 2.157,-4.562 2.141,-4.606 2.107,-4.645 2.1,-4.693 2.028,-5.121 2.145,-5.986 3.036,-6.523"
           style="fill:#ffffff;fill-opacity:1;fill-rule:nonzero;stroke:none"
           id="path218" /></g><g
         id="g220"
         transform="translate(529.6387,292.7139)"><path
           d="m 0,0 c 0.11,-0.128 0.235,-0.204 0.362,-0.247 0.033,-0.125 0.096,-0.252 0.206,-0.371 0.086,-0.091 0.174,-0.331 0.161,-0.736 -0.025,-0.876 -0.543,-2.28 -1.622,-3.29 -0.488,-0.462 -1.039,-0.824 -1.607,-1.07 -0.5,0.255 -1.087,0.662 -1.634,1.242 -0.556,0.595 -0.919,1.199 -1.137,1.696 0.284,0.554 0.681,1.088 1.177,1.553 C -2.601,0.179 -0.418,0.438 0,0 m -6.387,-6.578 c -0.77,0.817 -1.196,1.815 -1.168,2.738 0.017,0.553 0.198,1.056 0.529,1.475 0.197,-0.992 0.851,-2.184 1.766,-3.163 0.908,-0.964 2.072,-1.697 3.049,-1.954 -1.172,-0.824 -2.933,-0.42 -4.176,0.904 m 0.699,5.921 c -0.043,0.034 -0.075,0.08 -0.125,0.104 -0.071,0.034 -0.332,0.147 -0.696,0.147 -0.335,0 -0.836,-0.096 -1.314,-0.55 -0.801,-0.752 -1.242,-1.733 -1.276,-2.838 -0.026,-0.872 0.219,-1.773 0.683,-2.605 -0.046,-0.022 -0.09,-0.042 -0.155,-0.072 -0.315,-0.143 -0.649,-0.232 -0.992,-0.266 -0.424,-0.042 -0.735,-0.42 -0.693,-0.845 0.039,-0.398 0.375,-0.696 0.768,-0.696 0.025,0 0.05,0.002 0.077,0.004 0.513,0.05 1.01,0.184 1.475,0.396 0.188,0.084 0.323,0.149 0.448,0.22 1.09,-1.151 2.494,-1.812 3.86,-1.812 1.046,0 2.001,0.38 2.761,1.097 0.762,0.716 0.692,1.588 0.531,1.99 -0.018,0.046 -0.058,0.075 -0.084,0.116 0.202,0.156 0.399,0.322 0.587,0.499 1.234,1.158 2.062,2.872 2.106,4.369 0.018,0.602 -0.099,1.121 -0.339,1.521 0.06,0.233 0.103,0.604 -0.18,0.901 C 1.476,1.334 1.114,1.335 0.846,1.29 -0.52,2.221 -3.326,1.612 -5.15,-0.097 -5.341,-0.275 -5.52,-0.463 -5.688,-0.657"
           style="fill:#ffffff;fill-opacity:1;fill-rule:nonzero;stroke:none"
           id="path222" /></g><g
         id="g224"
         transform="translate(503.0391,237.8291)"><path
           d="m 0,0 c -0.697,-0.402 -1.438,-0.616 -2.144,-0.616 -0.887,0 -1.623,0.337 -2.11,0.96 1.018,-0.048 2.351,0.342 3.484,0.993 C 0.389,2.01 1.359,2.962 1.834,3.854 2.431,2.362 1.415,0.817 0,0 m -5.301,7.062 c 0.106,0.392 0.259,0.598 0.366,0.661 0.137,0.077 0.233,0.176 0.299,0.284 0.128,0.003 0.263,0.036 0.398,0.12 0.545,0.314 2.567,-0.56 3.593,-2.333 C -0.304,5.201 -0.077,4.575 0.032,3.964 -0.32,3.553 -0.841,3.082 -1.542,2.674 -2.244,2.271 -2.944,2.068 -3.495,1.975 -3.957,2.372 -4.372,2.871 -4.702,3.446 -5.439,4.72 -5.529,6.213 -5.301,7.062 M 3.005,4.97 C 2.652,5.585 2.053,5.952 1.4,5.952 1.359,5.952 1.234,5.943 1.194,5.937 1.139,5.929 1.096,5.894 1.045,5.874 0.939,6.107 0.822,6.339 0.692,6.565 -0.553,8.718 -3.041,10.099 -4.637,9.622 -4.855,9.735 -5.217,9.866 -5.569,9.646 -5.928,9.446 -6.008,9.1 -6.023,8.827 -6.373,8.512 -6.636,8.048 -6.793,7.463 -7.182,6.016 -6.886,4.135 -6.04,2.676 -5.91,2.45 -5.77,2.234 -5.62,2.026 -5.657,1.994 -5.704,1.977 -5.735,1.937 -6.006,1.598 -6.324,0.782 -5.8,-0.117 c 0.743,-1.298 2.076,-2.043 3.656,-2.043 0.968,0 1.966,0.281 2.889,0.809 0.101,-0.104 0.21,-0.205 0.362,-0.336 0.391,-0.34 0.829,-0.612 1.302,-0.807 0.096,-0.04 0.195,-0.059 0.294,-0.059 0.303,0 0.591,0.18 0.714,0.479 0.162,0.393 -0.025,0.845 -0.42,1.008 -0.317,0.13 -0.611,0.313 -0.876,0.544 -0.058,0.049 -0.098,0.085 -0.137,0.12 1.56,1.511 2.029,3.625 1.021,5.372"
           style="fill:#ffffff;fill-opacity:1;fill-rule:nonzero;stroke:none"
           id="path226" /></g><g
         id="g228"
         transform="translate(521.7266,234.5605)"><path
           d="m 0,0 c -0.45,-0.752 -1.586,-1.726 -3.019,-2.083 -0.649,-0.165 -1.307,-0.212 -1.927,-0.151 -0.302,0.452 -0.617,1.085 -0.819,1.883 -0.194,0.781 -0.218,1.475 -0.171,2.012 0.521,0.351 1.121,0.638 1.787,0.806 C -2.164,2.96 -0.13,2.124 0.022,1.529 0.058,1.368 0.128,1.244 0.216,1.147 0.184,1.022 0.178,0.881 0.219,0.725 0.249,0.603 0.208,0.349 0,0 m -8.759,-1.095 c -0.245,0.967 -0.185,1.92 0.166,2.684 0.207,0.449 0.601,1.012 1.332,1.312 -0.308,-0.964 -0.32,-2.345 -0.002,-3.627 0.302,-1.198 0.949,-2.457 1.711,-3.193 -1.455,-0.16 -2.757,1.015 -3.207,2.824 m 10.145,3.35 c -0.74,1.474 -3.485,2.31 -5.91,1.71 -0.253,-0.064 -0.5,-0.141 -0.742,-0.229 -0.021,0.05 -0.026,0.105 -0.057,0.15 -0.282,0.399 -1.06,0.855 -1.955,0.631 C -8.494,4.21 -9.459,3.399 -9.996,2.234 -10.3,1.575 -10.434,0.824 -10.432,0.047 c -0.052,0.004 -0.105,0.008 -0.18,0.015 -0.358,0.03 -0.682,0.113 -0.993,0.252 -0.387,0.174 -0.845,0.001 -1.021,-0.389 -0.174,-0.389 0,-0.846 0.39,-1.021 0.464,-0.208 0.965,-0.336 1.49,-0.382 0.2,-0.017 0.349,-0.029 0.489,-0.029 0.004,0 0.008,10e-4 0.012,10e-4 0.605,-2.376 2.381,-3.972 4.43,-3.972 0.333,0 0.669,0.042 0.999,0.126 1.015,0.253 1.38,1.047 1.436,1.476 0.007,0.052 -0.014,0.101 -0.017,0.152 0.252,0.037 0.505,0.08 0.756,0.144 1.641,0.41 3.198,1.504 3.966,2.788 0.31,0.517 0.46,1.026 0.446,1.497 0.166,0.175 0.384,0.478 0.281,0.87 -0.09,0.409 -0.406,0.587 -0.666,0.68"
           style="fill:#ffffff;fill-opacity:1;fill-rule:nonzero;stroke:none"
           id="path230" /></g><g
         id="g232"
         transform="translate(468.085,204.332)"><path
           d="m 0,0 c 0.846,-0.513 2.142,-0.835 3.521,-0.835 h 0.003 c 1.34,0.023 2.653,0.38 3.502,0.927 C 6.83,-1.336 5.433,-2.352 3.547,-2.375 L 3.473,-2.376 C 1.87,-2.376 0.241,-1.562 0,0 m 2.366,6.377 c 0.283,0.29 0.519,0.394 0.636,0.395 0.162,0 0.298,0.041 0.411,0.105 0.104,-0.054 0.226,-0.089 0.367,-0.089 0.012,0 0.021,10e-4 0.036,0 0.641,0 1.965,-1.75 1.996,-3.793 C 5.821,2.312 5.698,1.658 5.491,1.064 4.974,0.879 4.274,0.723 3.432,0.709 2.651,0.709 1.99,0.846 1.494,1.014 1.272,1.6 1.132,2.247 1.123,2.929 1.102,4.4 1.753,5.748 2.366,6.377 M 5.141,-3.869 C 5.114,-3.797 5.098,-3.747 5.08,-3.697 7.178,-3.141 8.619,-1.526 8.595,0.492 8.583,1.538 7.894,2.071 7.487,2.222 7.436,2.241 7.381,2.231 7.327,2.239 7.35,2.496 7.361,2.756 7.357,3.018 7.318,5.504 5.819,7.935 4.195,8.288 4.063,8.485 3.819,8.764 3.411,8.764 2.998,8.748 2.746,8.503 2.598,8.27 2.14,8.165 1.684,7.888 1.262,7.455 0.215,6.383 -0.445,4.598 -0.422,2.907 -0.418,2.647 -0.4,2.391 -0.371,2.136 -0.418,2.127 -0.467,2.135 -0.512,2.116 -0.914,1.953 -1.589,1.397 -1.574,0.355 -1.548,-2.082 0.621,-3.92 3.473,-3.92 h 0.064 c 0.035,-0.137 0.081,-0.278 0.151,-0.471 0.18,-0.5 0.431,-0.951 0.746,-1.342 0.152,-0.19 0.376,-0.288 0.601,-0.288 0.17,0 0.341,0.055 0.485,0.17 0.332,0.268 0.384,0.753 0.117,1.086 -0.207,0.258 -0.375,0.561 -0.496,0.896"
           style="fill:#ffffff;fill-opacity:1;fill-rule:nonzero;stroke:none"
           id="path234" /></g><g
         id="g236"
         transform="translate(486.8457,190.2803)"><path
           d="M 0,0 C -0.088,-0.093 -0.162,-0.213 -0.202,-0.368 -0.235,-0.49 -0.396,-0.692 -0.749,-0.895 -1.511,-1.33 -2.977,-1.623 -4.4,-1.235 c -0.654,0.176 -1.245,0.473 -1.759,0.836 -0.039,0.538 -0.003,1.236 0.208,2.017 0.217,0.787 0.541,1.411 0.844,1.857 0.627,0.048 1.29,-0.009 1.944,-0.187 C -1.187,2.748 0.178,1.025 0.017,0.426 -0.03,0.269 -0.029,0.127 0,0 m -7.51,-1.597 c -0.489,0.212 -0.886,0.57 -1.161,1.049 -0.46,0.803 -0.553,1.891 -0.254,2.986 0.449,1.655 1.641,2.767 2.965,2.767 0.098,0 0.197,-0.007 0.297,-0.018 C -6.44,4.462 -7.114,3.213 -7.44,2.023 -7.784,0.751 -7.8,-0.628 -7.51,-1.597 m 4.753,6.375 c -0.251,0.069 -0.504,0.122 -0.757,0.163 0.006,0.054 0.029,0.105 0.023,0.16 -0.044,0.431 -0.389,1.232 -1.395,1.503 -0.355,0.096 -0.717,0.145 -1.074,0.145 -1.585,0 -3.015,-0.965 -3.872,-2.495 -0.042,0.028 -0.083,0.056 -0.144,0.096 -0.289,0.196 -0.541,0.434 -0.748,0.71 -0.256,0.337 -0.741,0.408 -1.082,0.15 -0.34,-0.258 -0.407,-0.741 -0.15,-1.082 0.31,-0.409 0.685,-0.765 1.116,-1.058 0.17,-0.113 0.294,-0.193 0.419,-0.261 -0.394,-1.476 -0.247,-2.977 0.41,-4.124 0.546,-0.954 1.392,-1.609 2.448,-1.894 0.187,-0.051 0.375,-0.076 0.557,-0.076 0.679,0 1.186,0.359 1.414,0.668 0.03,0.039 0.033,0.089 0.055,0.132 0.238,-0.092 0.482,-0.173 0.732,-0.241 0.583,-0.159 1.201,-0.237 1.813,-0.237 1.097,10e-4 2.177,0.251 3.011,0.729 0.522,0.299 0.904,0.67 1.122,1.088 0.23,0.071 0.566,0.231 0.676,0.636 0.112,0.397 -0.075,0.7 -0.255,0.905 0.081,1.649 -1.906,3.723 -4.319,4.383"
           style="fill:#ffffff;fill-opacity:1;fill-rule:nonzero;stroke:none"
           id="path238" /></g><g
         id="g240"
         transform="translate(469.709,190.2783)"><path
           d="m 0,0 c -0.64,-1.192 -1.963,-1.876 -3.632,-1.876 -0.147,0 -0.299,0.005 -0.462,0.017 -0.266,0.016 -0.523,0.025 -0.77,0.025 -0.899,0 -3.635,0 -4.686,-2.807 -0.693,-1.867 1.265,-2.805 2.695,-3.49 0.828,-0.397 2.08,-0.998 2.214,-1.512 0.067,-0.25 -0.172,-0.642 -0.29,-0.812 -1.009,-1.316 -2.238,-2.012 -3.552,-2.012 -1.129,0 -2.316,0.519 -3.344,1.461 -0.186,0.17 -0.373,0.348 -0.563,0.527 -1.28,1.208 -2.604,2.459 -4.173,2.459 -0.618,0 -1.194,-0.198 -1.72,-0.593 -1.489,-1.136 -0.782,-2.861 -0.36,-3.891 0.236,-0.572 0.528,-1.285 0.393,-1.583 -0.086,-0.188 -0.435,-0.402 -0.933,-0.572 -0.45,-0.154 -0.883,-0.232 -1.288,-0.232 -1.48,0 -2.437,1.044 -3.071,1.734 l -0.14,0.152 c -0.23,0.244 -0.44,0.482 -0.638,0.706 -0.922,1.043 -1.793,2.028 -3.278,2.028 -0.244,0 -0.5,-0.029 -0.745,-0.084 -1.323,-0.282 -1.519,-1.584 -1.636,-2.363 -0.042,-0.278 -0.121,-0.796 -0.219,-0.898 0,-0.001 -0.149,-0.047 -0.399,-0.018 -0.809,0.084 -1.964,0.833 -3.029,3.769 0.586,0.088 1.194,0.181 1.848,0.286 9.887,1.744 23.885,8.413 24.132,9.137 0.019,0.054 0.025,0.112 0.018,0.169 -0.004,0.041 -0.015,0.08 -0.031,0.116 -0.017,0.037 -0.039,0.072 -0.068,0.102 -0.071,0.078 -0.173,0.127 -0.288,0.127 -0.107,0 -0.107,0 -1.219,-0.439 -3.557,-1.405 -14.381,-5.683 -22.931,-7.182 -0.651,-0.103 -1.245,-0.201 -1.808,-0.295 -0.012,3.374 0.767,4.418 1.257,4.734 0.066,0.042 0.114,0.065 0.132,0.08 0.143,-0.122 0.372,-0.486 0.514,-0.711 0.466,-0.739 1.106,-1.825 2.455,-1.533 2.08,0.467 2.333,2.279 2.577,4.03 l 0.125,0.853 c 0.227,1.544 0.554,2.965 2.027,3.385 0.688,0.194 0.886,0.187 1.409,-1.56 0.356,-1.188 0.843,-2.815 2.536,-2.945 0.775,-0.065 1.415,0.172 1.91,0.67 1.061,1.066 1.053,3.052 1.046,4.805 v 0.602 c 0.016,4.074 2.086,4.074 2.864,4.074 0.234,0 0.48,-0.018 0.802,-0.061 0.482,-0.041 0.607,-0.194 0.648,-0.245 0.381,-0.47 0.21,-1.85 0.086,-2.856 -0.197,-1.601 -0.422,-3.416 1.111,-4.045 0.474,-0.197 0.947,-0.295 1.404,-0.295 1.947,0 3.111,1.72 3.812,3.008 0.804,1.446 1.959,2.243 3.254,2.243 1.309,0 2.609,-0.827 3.567,-2.265 C 0.481,2.742 0.645,1.201 0,0 m -4.004,8.705 c -2.142,0 -4.066,-1.252 -5.283,-3.442 -0.664,-1.218 -1.247,-1.809 -1.783,-1.809 -0.102,0 -0.213,0.018 -0.334,0.054 -0.045,0.361 0.051,1.144 0.118,1.685 0.195,1.578 0.416,3.366 -0.586,4.6 -0.523,0.644 -1.28,1.012 -2.191,1.088 -3.904,0.532 -6.22,-1.833 -6.239,-6.303 V 3.954 c 0.004,-0.852 0.012,-2.849 -0.426,-3.17 -0.176,0.135 -0.397,0.873 -0.53,1.314 -0.368,1.229 -0.984,3.287 -3.171,3.287 -0.339,0 -0.704,-0.054 -1.089,-0.162 -3.038,-0.866 -3.476,-3.844 -3.687,-5.276 l -0.127,-0.871 c -0.191,-1.37 -0.299,-1.807 -0.519,-1.98 -0.086,0.123 -0.184,0.278 -0.259,0.398 -0.452,0.718 -1.136,1.803 -2.433,1.803 -0.466,0 -0.942,-0.151 -1.42,-0.455 -2.271,-1.46 -2.375,-5.217 -2.326,-7.091 -5.115,-0.943 -5.094,-1.339 -5.065,-1.694 0.002,-0.032 0.008,-0.062 0.016,-0.09 -0.004,-0.055 0.003,-0.111 0.021,-0.166 0.117,-0.371 0.596,-0.403 1.121,-0.403 0.833,0 2.254,0.135 4.244,0.403 1.209,-3.569 2.925,-5.51 5.113,-5.739 0.152,-0.016 0.294,-0.023 0.428,-0.023 2.285,0 2.592,2.031 2.722,2.898 0.021,0.143 0.05,0.333 0.081,0.476 h 0.01 c 0.421,0 0.819,-0.428 1.542,-1.247 0.214,-0.241 0.441,-0.497 0.684,-0.755 l 0.124,-0.135 c 0.739,-0.805 2.279,-2.483 4.777,-2.483 0.659,0 1.344,0.12 2.035,0.355 1.174,0.401 1.924,0.992 2.295,1.808 0.549,1.208 0.046,2.435 -0.358,3.419 -0.154,0.376 -0.412,1.005 -0.387,1.165 0.146,0.109 0.245,0.124 0.323,0.124 0.648,0 1.766,-1.057 2.583,-1.827 0.199,-0.189 0.395,-0.374 0.588,-0.551 1.455,-1.335 3.199,-2.069 4.909,-2.069 1.438,0 3.541,0.506 5.42,2.96 0.671,0.959 0.894,1.89 0.664,2.769 -0.409,1.551 -2.027,2.326 -3.455,3.012 -0.475,0.227 -1.157,0.554 -1.445,0.786 0.316,0.688 0.887,1.106 2.435,1.106 0.2,0 0.409,-0.008 0.617,-0.021 2.83,-0.198 5.165,0.981 6.289,3.076 1.054,1.966 0.849,4.396 -0.55,6.502 -1.396,2.096 -3.399,3.298 -5.496,3.298"
           style="fill:#ffffff;fill-opacity:1;fill-rule:nonzero;stroke:none"
           id="path242" /></g><g
         id="g244"
         transform="translate(507.7246,216.1309)"><path
           d="m 0,0 c -0.457,-3.131 -2.462,-4.587 -5.534,-3.787 -0.278,0.066 -0.567,0.141 -0.86,0.218 -1.009,0.264 -2.053,0.537 -3.021,0.537 -1.916,0 -2.631,-1.137 -2.883,-1.805 -0.662,-1.706 0.703,-2.79 1.607,-3.507 0.473,-0.377 1.064,-0.845 1.1,-1.184 0.023,-0.219 -0.156,-0.577 -0.45,-0.937 -0.7,-0.763 -1.498,-1.134 -2.439,-1.134 -0.776,0 -1.507,0.245 -2.041,0.422 l -0.228,0.075 c -0.28,0.093 -0.544,0.187 -0.792,0.275 -0.855,0.305 -1.595,0.567 -2.361,0.567 -0.802,0 -1.519,-0.301 -2.114,-0.877 -0.973,-0.899 -0.498,-2.121 -0.213,-2.85 0.101,-0.261 0.291,-0.747 0.268,-0.876 -0.016,-0.022 -0.102,-0.098 -0.283,-0.174 -1.06,-0.407 -2.529,0.183 -4.323,1.696 1.061,0.87 2.327,1.977 3.807,3.333 7.427,6.615 15.946,19.618 15.808,20.372 -0.024,0.133 -0.119,0.249 -0.245,0.298 -0.044,0.017 -0.091,0.026 -0.139,0.026 -0.205,0 -0.205,0 -0.894,-0.917 -6.183,-8.214 -11.544,-14.356 -15.94,-18.259 -1.569,-1.439 -2.76,-2.54 -3.681,-3.407 -1.817,3.121 -1.511,4.353 -1.268,4.769 0.036,0.064 0.066,0.106 0.074,0.128 0.174,-0.035 0.523,-0.221 0.74,-0.336 0.481,-0.255 1.026,-0.544 1.633,-0.544 0.455,0 0.87,0.161 1.222,0.485 1.45,1.404 0.842,3.015 0.253,4.574 l -0.325,0.869 c -0.527,1.391 -0.91,2.728 0.229,3.846 0.235,0.26 0.41,0.353 0.488,0.353 0.296,0 0.909,-0.595 1.316,-0.988 0.727,-0.705 1.552,-1.505 2.635,-1.505 0.343,0 0.677,0.083 1.001,0.25 0.616,0.323 1.04,0.828 1.226,1.459 0.437,1.47 -0.53,3.2 -1.383,4.727 l -0.201,0.361 c -0.786,1.501 -1.024,2.769 -0.688,3.667 0.248,0.664 0.826,1.166 1.788,1.542 0.2,0.083 0.381,0.127 0.522,0.127 0.645,0 1.163,-1.321 1.579,-2.381 0.547,-1.393 1.167,-2.971 2.695,-2.971 l 0.223,0.013 c 2.149,0.283 3.263,1.871 3.311,4.795 -0.062,1.246 0.252,2.266 0.905,2.953 1.052,1.103 2.987,1.205 4.86,0.241 1.426,-0.734 2.246,-1.93 2.25,-3.279 C -0.761,9.834 -1.7,8.489 -3.215,7.694 -5.093,6.854 -7.19,5.534 -6.742,2.8 -6.591,1.606 -5.63,1.001 -3.887,1.001 c 0.355,0 0.741,0.019 1.137,0.039 0.379,0.019 0.768,0.039 1.146,0.039 1.091,0 1.418,-0.187 1.517,-0.299 C 0.018,0.66 0.049,0.37 0,0 m -1.604,3.396 c -0.417,0 -0.845,-0.022 -1.262,-0.042 -0.683,-0.037 -1.371,-0.04 -1.613,-10e-4 -0.057,0.67 0.21,1.333 2.274,2.257 2.359,1.235 3.764,3.35 3.756,5.658 -0.007,2.211 -1.318,4.204 -3.506,5.33 -2.782,1.433 -5.851,1.132 -7.599,-0.703 -1.1,-1.156 -1.634,-2.769 -1.543,-4.587 -0.035,-2.048 -0.666,-2.352 -1.079,-2.433 -0.206,0.278 -0.485,0.989 -0.678,1.479 -0.637,1.625 -1.511,3.851 -3.735,3.851 -0.449,0 -0.924,-0.101 -1.388,-0.295 -1.567,-0.613 -2.607,-1.582 -3.092,-2.88 -0.58,-1.552 -0.31,-3.421 0.817,-5.574 l 0.22,-0.394 c 0.342,-0.612 1.362,-2.439 1.125,-2.963 -0.242,0.12 -0.691,0.554 -0.97,0.825 -0.754,0.731 -1.693,1.641 -2.928,1.641 -0.797,0 -1.54,-0.377 -2.158,-1.066 -2.262,-2.212 -1.185,-5.055 -0.725,-6.27 l 0.324,-0.868 c 0.427,-1.131 0.546,-1.569 0.481,-1.822 -0.112,0.055 -0.238,0.121 -0.337,0.174 -0.513,0.272 -1.153,0.611 -1.875,0.611 -0.599,0 -1.441,-0.23 -2.036,-1.303 -1.48,-2.525 0.743,-6.23 1.564,-7.562 -1.319,-1.307 -1.285,-1.452 -1.215,-1.667 0.018,-0.056 0.055,-0.134 0.136,-0.197 0.029,-0.053 0.065,-0.101 0.103,-0.132 0.069,-0.056 0.258,-0.114 0.347,-0.114 0.33,0 0.92,0.297 1.749,0.872 1.117,-1.003 3.26,-2.697 5.522,-2.697 0.531,0 1.041,0.094 1.544,0.289 2.482,1.035 1.631,3.218 1.311,4.041 -0.056,0.14 -0.129,0.329 -0.174,0.473 0.136,0.088 0.24,0.097 0.342,0.097 0.367,0 0.931,-0.2 1.585,-0.433 0.263,-0.094 0.543,-0.193 0.85,-0.295 l 0.212,-0.07 c 0.647,-0.216 1.623,-0.541 2.775,-0.541 1.604,0 2.999,0.634 4.186,1.931 0.771,0.934 1.1,1.818 1.007,2.7 -0.139,1.305 -1.151,2.108 -1.964,2.755 -0.315,0.25 -0.842,0.668 -0.883,0.865 0.056,0.147 0.119,0.315 0.719,0.315 0.67,0 1.567,-0.234 2.436,-0.461 0.31,-0.082 0.617,-0.162 0.886,-0.225 0.709,-0.185 1.409,-0.278 2.082,-0.278 3.351,0 5.766,2.291 6.306,5.996 C 2.438,0.776 2.223,1.66 1.653,2.309 0.808,3.271 -0.531,3.396 -1.604,3.396"
           style="fill:#ffffff;fill-opacity:1;fill-rule:nonzero;stroke:none"
           id="path246" /></g><g
         id="g248"
         transform="translate(527.5625,264.752)"><path
           d="m 0,0 c -0.54,-1.056 -1.611,-1.857 -3.022,-2.26 -0.24,-0.068 -0.487,-0.136 -0.737,-0.203 -2.039,-0.552 -4.832,-1.308 -4.596,-3.987 0.191,-1.842 2.004,-2.134 3.088,-2.309 0.564,-0.091 1.334,-0.216 1.51,-0.473 0.041,-0.061 0.164,-0.318 0.002,-1.052 -0.47,-2.103 -1.966,-2.565 -3.458,-2.858 l -0.195,-0.038 c -0.323,-0.067 -0.63,-0.12 -0.92,-0.171 -1.521,-0.263 -3.093,-0.536 -3.708,-2.382 -0.443,-1.263 0.551,-2.099 1.144,-2.599 0.208,-0.175 0.597,-0.502 0.635,-0.631 0,-10e-4 -0.012,-0.105 -0.181,-0.329 -0.433,-0.566 -1.264,-0.854 -2.47,-0.854 -0.811,0 -1.62,0.134 -2.237,0.264 0.478,1.18 1.059,2.696 1.785,4.691 3.44,9.897 4.236,24.964 3.869,25.481 l -0.32,0.165 c -0.375,0 -0.375,0 -0.719,-2.41 -0.641,-4.483 -2.142,-14.982 -4.794,-22.582 -0.705,-1.94 -1.226,-3.437 -1.616,-4.618 -2.84,1.719 -3.316,2.9 -3.33,3.468 -0.001,0.059 0.001,0.103 0.005,0.134 0.184,0.049 0.577,0.055 0.824,0.058 0.79,0.011 2.113,0.028 2.559,1.29 0.662,1.983 -0.71,3.12 -2.036,4.219 l -0.659,0.55 c -1.172,0.975 -2.191,1.969 -1.793,3.408 0.173,0.623 0.358,0.623 0.614,0.623 0.373,0 0.88,-0.135 1.37,-0.265 0.596,-0.157 1.211,-0.32 1.816,-0.32 1.064,0 1.66,0.515 1.961,0.934 0.426,0.573 0.584,1.219 0.456,1.87 -0.293,1.499 -2.01,2.536 -3.525,3.452 l -0.482,0.293 c -1.423,0.884 -2.248,1.834 -2.389,2.743 -0.108,0.699 0.19,1.466 0.937,2.344 0.306,0.414 0.507,0.414 0.592,0.414 0.592,0 1.586,-0.801 2.312,-1.386 1.001,-0.807 1.866,-1.504 2.853,-1.504 0.404,0 0.787,0.125 1.077,0.338 2.724,1.856 1.016,4.828 0.448,5.817 -0.771,1.303 -0.88,2.598 -0.308,3.645 0.646,1.179 2.086,1.923 3.853,1.986 l 0.198,0.003 c 1.58,0 2.833,-0.658 3.438,-1.806 0.652,-1.24 0.44,-2.805 -0.576,-4.286 -0.589,-0.838 -2.382,-3.388 -0.49,-6.002 0.379,-0.481 0.926,-0.747 1.541,-0.747 0.92,0 1.834,0.584 2.802,1.201 0.761,0.487 1.707,1.091 2.273,1.091 0.108,0 0.36,0 0.637,-0.639 C 0.551,2.355 0.538,1.051 0,0 m -17.194,-23.277 c 0.017,0.021 0.036,0.046 0.056,0.073 0.013,-0.02 0.038,-0.03 0.045,-0.053 z M -0.599,6.727 c -1.243,0 -2.453,-0.773 -3.52,-1.455 -0.431,-0.275 -1.046,-0.668 -1.392,-0.796 -0.347,0.581 -0.487,1.397 0.689,3.07 1.503,2.19 1.773,4.69 0.722,6.686 -1.004,1.906 -3.054,3.043 -5.487,3.043 l -0.28,-0.004 c -2.592,-0.093 -4.762,-1.286 -5.803,-3.19 -0.966,-1.767 -0.84,-3.93 0.339,-5.923 1.045,-1.818 0.779,-2.325 0.393,-2.632 -0.319,0.148 -0.91,0.623 -1.317,0.952 -1.104,0.889 -2.355,1.898 -3.765,1.898 -0.662,0 -1.626,-0.234 -2.403,-1.288 -1.155,-1.351 -1.631,-2.743 -1.415,-4.14 0.25,-1.62 1.412,-3.086 3.457,-4.358 l 0.505,-0.308 c 0.708,-0.428 2.368,-1.43 2.437,-1.943 0,0 -0.037,-0.013 -0.131,-0.013 -0.304,0 -0.771,0.124 -1.223,0.243 -0.603,0.16 -1.288,0.341 -1.963,0.341 -1.42,0 -2.431,-0.823 -2.847,-2.319 -0.83,-3.001 1.45,-4.897 2.545,-5.808 l 0.662,-0.553 c 0.993,-0.823 1.309,-1.138 1.358,-1.397 -0.14,-0.008 -0.306,-0.01 -0.434,-0.012 -0.749,-0.009 -1.775,-0.023 -2.486,-0.758 -0.432,-0.446 -0.643,-1.05 -0.628,-1.801 0.067,-2.763 3.424,-4.834 4.94,-5.694 -0.496,-1.782 -0.36,-1.993 -0.259,-2.136 l 0.359,-0.19 0.044,0.016 0.107,-0.079 c 0.21,0 0.489,0.014 1.318,1.775 0.731,-0.174 1.919,-0.416 3.169,-0.416 1.967,0 3.418,0.594 4.311,1.766 1.607,2.109 -0.144,3.582 -0.803,4.136 -0.105,0.088 -0.243,0.204 -0.344,0.3 0.187,0.3 0.577,0.413 1.812,0.627 0.312,0.055 0.644,0.112 0.99,0.184 l 0.175,0.035 c 1.327,0.26 4.434,0.87 5.273,4.627 0.264,1.19 0.15,2.125 -0.347,2.856 -0.736,1.084 -2.023,1.292 -3.057,1.459 -0.388,0.063 -1.038,0.167 -1.152,0.243 -0.058,0.675 1.22,1.076 2.897,1.53 0.262,0.071 0.522,0.141 0.769,0.213 2.031,0.579 3.611,1.798 4.447,3.431 C 2.9,0.583 2.953,2.524 2.19,4.625 1.441,6.361 0.261,6.727 -0.599,6.727"
           style="fill:#ffffff;fill-opacity:1;fill-rule:nonzero;stroke:none"
           id="path250" /></g><g
         id="g252"
         transform="translate(513.3252,319.5439)"><path
           d="m 0,0 c 0.255,-0.115 0.52,-0.173 0.787,-0.173 1.35,0 2.086,1.352 2.799,2.659 0.435,0.801 1.166,2.14 1.658,2.14 0.074,0 0.291,-0.033 0.677,-0.346 C 7.109,3.313 7.766,2.189 7.818,1.03 7.872,-0.14 7.311,-1.363 6.221,-2.43 6.021,-2.633 5.806,-2.841 5.589,-3.051 4.134,-4.46 1.935,-6.59 3.642,-8.716 4.1,-9.329 4.754,-9.653 5.533,-9.653 c 0.673,0 1.323,0.237 1.952,0.466 0.486,0.177 0.986,0.359 1.33,0.359 0.139,0 0.427,0 0.709,-0.951 0.601,-2.08 -0.494,-3.216 -1.667,-4.2 L 7.72,-14.096 c -0.238,-0.2 -0.466,-0.384 -0.681,-0.557 -1.227,-0.985 -2.495,-2.003 -2.118,-3.951 0.242,-1.307 1.516,-1.55 2.277,-1.696 0.274,-0.052 0.781,-0.149 0.879,-0.25 10e-4,-10e-4 0.044,-0.096 0.006,-0.384 -0.077,-0.625 -0.699,-1.771 -3.809,-2.765 -0.165,1.29 -0.432,2.982 -0.857,5.243 -1.675,9.583 -8.406,24.125 -9.34,24.125 -0.102,0 -0.204,-0.042 -0.277,-0.114 -0.217,-0.218 -0.217,-0.218 0.721,-2.598 1.648,-4.188 5.508,-13.995 6.867,-21.816 0.412,-2.193 0.732,-3.849 0.99,-5.12 -3.311,0.114 -4.333,0.939 -4.64,1.437 -0.028,0.047 -0.048,0.086 -0.06,0.115 0.137,0.13 0.466,0.319 0.673,0.439 0.686,0.396 1.835,1.059 1.588,2.37 -0.384,2.024 -2.093,2.353 -3.746,2.67 l -0.925,0.18 c -1.492,0.279 -2.858,0.65 -3.199,2.109 -0.157,0.659 -0.199,0.837 1.58,1.292 1.123,0.287 2.821,0.722 2.969,2.462 0.032,0.685 -0.183,1.301 -0.625,1.782 -1.039,1.133 -3.037,1.208 -4.8,1.274 l -0.42,0.017 c -1.639,0.099 -2.816,0.539 -3.403,1.272 -0.448,0.56 -0.591,1.364 -0.424,2.392 0.092,0.576 0.237,0.847 1.161,0.847 0.556,0 1.219,-0.117 1.861,-0.23 0.67,-0.118 1.302,-0.23 1.885,-0.23 1.303,0 1.881,0.615 2.161,1.184 0.51,1.176 0.88,3.427 -2.396,5.281 -1.331,0.755 -2.074,1.826 -2.093,3.013 -0.02,1.328 0.87,2.672 2.378,3.593 1.691,1.028 3.588,0.883 4.702,-0.327 0.766,-0.83 1.124,-2.066 1.007,-3.48 C -2.513,3.946 -2.745,1.083 0,0 m -1.69,10.533 c -1.846,2.004 -4.982,2.334 -7.612,0.735 -2.219,-1.353 -3.522,-3.45 -3.489,-5.607 0.032,-2.012 1.222,-3.831 3.267,-4.992 1.708,-0.967 1.653,-1.705 1.503,-2.129 -0.035,-0.003 -0.076,-0.005 -0.126,-0.005 -0.38,0 -0.916,0.095 -1.483,0.195 -0.705,0.124 -1.504,0.265 -2.263,0.265 -2.613,0 -3.282,-1.754 -3.448,-2.796 -0.276,-1.697 0.028,-3.112 0.903,-4.206 1.021,-1.277 2.728,-1.996 5.092,-2.139 l 0.452,-0.017 c 0.977,-0.037 2.794,-0.106 3.181,-0.526 0.004,-0.005 0.01,-0.011 0.013,-0.025 -0.205,-0.148 -0.836,-0.309 -1.225,-0.409 -1.294,-0.331 -3.985,-1.02 -3.261,-4.067 0.711,-3.048 3.737,-3.613 5.029,-3.855 l 0.913,-0.178 c 1.192,-0.229 1.617,-0.352 1.79,-0.549 -0.113,-0.072 -0.248,-0.149 -0.354,-0.21 -0.647,-0.374 -1.533,-0.886 -1.788,-1.874 -0.156,-0.603 -0.038,-1.236 0.357,-1.892 1.489,-2.413 5.464,-2.552 7.12,-2.56 0.411,-1.718 0.573,-1.726 0.84,-1.726 0.044,0 0.086,0.006 0.126,0.018 0.106,0.006 0.325,0.089 0.405,0.186 0.098,0.117 0.297,0.372 0.241,1.785 3.63,1.069 5.623,2.688 5.888,4.816 0.345,2.614 -1.902,3.043 -2.748,3.205 -0.138,0.026 -0.321,0.061 -0.459,0.096 0.014,0.365 0.305,0.658 1.315,1.469 0.23,0.184 0.473,0.38 0.728,0.596 l 0.131,0.11 c 1.038,0.872 3.47,2.915 2.4,6.624 -0.642,2.164 -1.948,2.618 -2.933,2.618 -0.752,0 -1.48,-0.265 -2.122,-0.499 -0.421,-0.154 -0.895,-0.322 -1.22,-0.288 -0.38,0.474 0.557,1.45 1.727,2.583 0.232,0.224 0.458,0.444 0.655,0.645 1.553,1.519 2.362,3.368 2.278,5.206 C 10.049,2.974 9.098,4.683 7.38,6.079 6.672,6.652 5.953,6.943 5.244,6.943 3.377,6.943 2.364,5.086 1.552,3.594 1.307,3.144 0.956,2.501 0.713,2.216 0.035,2.556 -0.25,3.195 -0.079,5.295 0.091,7.36 -0.481,9.221 -1.69,10.533"
           style="fill:#ffffff;fill-opacity:1;fill-rule:nonzero;stroke:none"
           id="path254" /></g><g
         id="g256"
         transform="translate(470.1787,365.6982)"><path
           d="m 0,0 c 0.772,1.36 2.013,2.172 3.318,2.172 1.467,0 2.777,-1.01 3.514,-2.729 0.821,-1.788 1.979,-3.615 4.335,-3.615 0.147,0 0.3,0.008 0.447,0.023 1.951,0.177 1.935,2.345 1.922,3.929 -0.007,0.902 -0.016,2.264 0.351,2.635 0.028,0.028 0.112,0.112 0.42,0.112 0.122,0 0.255,-0.013 0.364,-0.031 1.558,-0.323 2.702,-1.035 3.311,-2.059 0.587,-0.986 0.675,-2.244 0.247,-3.661 -0.077,-0.277 -0.164,-0.565 -0.251,-0.856 -0.59,-1.941 -1.48,-4.876 1.032,-5.925 0.311,-0.139 0.632,-0.209 0.953,-0.209 1.188,0 1.988,0.928 2.632,1.673 0.401,0.465 0.9,1.044 1.221,1.044 0.098,0 0.382,-0.052 0.875,-0.516 1.522,-1.535 1.115,-3.071 0.568,-4.514 l -0.068,-0.18 c -0.099,-0.269 -0.199,-0.52 -0.292,-0.757 -0.569,-1.444 -1.158,-2.937 0.089,-4.499 0.25,-0.306 0.706,-0.67 1.454,-0.67 0.48,0 0.927,0.15 1.359,0.295 0.297,0.099 0.633,0.212 0.875,0.213 0.001,-0.001 0.085,-0.065 0.19,-0.334 0.243,-0.611 0.264,-1.979 -2.101,-4.447 -0.772,1.052 -1.825,2.41 -3.263,4.178 -5.476,6.68 -14.938,13.365 -18.061,15.571 -1.356,1.082 -1.439,1.082 -1.59,1.082 L 3.686,-2.076 3.444,-2.32 3.46,-2.499 c 0.019,-0.217 0.019,-0.217 1.422,-1.208 l 0.096,-0.067 c 3.617,-2.888 11.8,-9.998 16.943,-16.29 1.384,-1.699 2.446,-2.979 3.27,-3.949 -0.984,-0.501 -2.434,-1.131 -3.626,-1.131 -0.379,0 -0.693,0.068 -0.917,0.195 -0.05,0.03 -0.087,0.054 -0.112,0.074 0.054,0.182 0.254,0.519 0.38,0.73 0.404,0.68 1.082,1.818 0.255,2.828 -0.563,0.708 -1.294,1.067 -2.176,1.067 -0.753,0 -1.514,-0.258 -2.393,-0.556 l -0.957,-0.318 c -0.563,-0.188 -1.333,-0.447 -2.07,-0.447 -0.71,0 -1.251,0.237 -1.732,0.779 -0.208,0.216 -0.33,0.417 -0.327,0.538 0.006,0.315 0.634,0.912 1.049,1.307 0.839,0.8 2.109,2.008 1.393,3.584 -0.44,0.913 -1.261,1.416 -2.31,1.416 -1.245,0 -2.647,-0.713 -3.884,-1.342 L 7.39,-15.478 c -1.015,-0.483 -1.95,-0.739 -2.704,-0.739 -0.756,0 -1.831,0.211 -2.433,2.082 -0.177,0.483 -0.086,0.675 -0.056,0.738 0.252,0.53 1.489,0.957 2.392,1.269 1.404,0.484 3.152,1.087 3.06,2.755 C 7.543,-7.806 6.642,-5.935 2.983,-5.92 1.418,-5.872 0.231,-5.267 -0.359,-4.217 -1.001,-3.075 -0.87,-1.538 0,0 m -2.015,1.142 c -1.28,-2.261 -1.413,-4.628 -0.363,-6.495 0.989,-1.758 2.917,-2.809 5.32,-2.883 C 4.973,-8.244 5.26,-8.867 5.321,-9.333 5.035,-9.524 4.324,-9.77 3.833,-9.939 c -1.434,-0.495 -3.059,-1.055 -3.729,-2.463 -0.357,-0.752 -0.366,-1.603 -0.042,-2.486 1.136,-3.529 4.255,-4.622 8.345,-2.671 l 0.406,0.205 c 0.956,0.486 2.145,1.091 2.835,1.091 0.124,0 0.163,-0.008 0.191,-0.047 -0.102,-0.227 -0.579,-0.681 -0.871,-0.959 -0.775,-0.738 -1.739,-1.656 -1.768,-2.932 -0.017,-0.766 0.309,-1.505 0.941,-2.162 0.897,-1.011 2.053,-1.524 3.434,-1.524 1.114,0 2.132,0.341 2.806,0.567 l 0.964,0.32 c 0.791,0.268 1.462,0.522 1.798,0.417 -0.067,-0.124 -0.152,-0.267 -0.218,-0.377 -0.383,-0.644 -0.907,-1.526 -0.652,-2.515 0.156,-0.602 0.562,-1.098 1.222,-1.483 0.589,-0.333 1.286,-0.502 2.07,-0.502 1.823,0 3.762,0.882 5.197,1.656 1.092,-1.189 1.28,-1.205 1.444,-1.205 0.105,-0.018 0.221,0.031 0.313,0.115 l 0.115,0.017 0.104,0.22 c 0.08,0.169 0.202,0.444 -0.642,1.81 2.749,2.748 3.741,5.185 2.925,7.237 -0.612,1.566 -1.757,1.8 -2.385,1.8 -0.579,0 -1.106,-0.176 -1.571,-0.332 -0.127,-0.042 -0.294,-0.098 -0.427,-0.135 -0.172,0.348 -0.064,0.746 0.416,1.964 0.099,0.25 0.204,0.517 0.309,0.8 l 0.062,0.165 c 0.481,1.27 1.609,4.244 -1.117,6.993 -0.839,0.791 -1.654,1.175 -2.492,1.175 -1.382,0 -2.265,-1.025 -2.975,-1.848 -0.266,-0.307 -0.708,-0.82 -0.913,-0.85 -0.56,0.234 -0.211,1.554 0.265,3.126 0.095,0.31 0.187,0.615 0.261,0.884 0.613,2.031 0.447,3.93 -0.481,5.49 C 19.022,3.22 17.352,4.306 15.104,4.771 13.65,5.023 12.689,4.497 12.243,4.046 11.195,2.991 11.209,1.276 11.221,-0.238 11.225,-0.751 11.229,-1.485 11.156,-1.855 10.427,-1.852 9.8,-1.467 8.949,0.383 7.846,2.954 5.741,4.488 3.318,4.488 c -2.15,0 -4.143,-1.25 -5.333,-3.346"
           style="fill:#ffffff;fill-opacity:1;fill-rule:nonzero;stroke:none"
           id="path258" /></g><g
         id="g260"
         transform="translate(360.6738,254.6318)"><path
           d="M 0,0 5.202,13.664 H 2.259 L -0.474,6.569 C -0.866,5.519 -1.262,4.285 -1.603,3.05 H -1.63 c -0.341,1.262 -0.709,2.469 -1.129,3.574 l -2.655,7.04 H -8.541 L -3.312,0 Z"
           style="fill:#ffffff;fill-opacity:1;fill-rule:nonzero;stroke:none"
           id="path262" /></g><g
         id="g264"
         transform="translate(377.542,256.8936)"><path
           d="m 0,0 h -5.206 v 3.677 h 4.968 V 5.833 H -5.206 V 9.169 H 0 v 2.233 H -8.043 V -2.262 H 0 Z"
           style="fill:#ffffff;fill-opacity:1;fill-rule:nonzero;stroke:none"
           id="path266" /></g><g
         id="g268"
         transform="translate(387.7104,254.6318)"><path
           d="m 0,0 v 11.246 h 3.786 v 2.418 H -6.621 v -2.418 h 3.783 L -2.838,0 Z"
           style="fill:#ffffff;fill-opacity:1;fill-rule:nonzero;stroke:none"
           id="path270" /></g><g
         id="g272"
         transform="translate(403.6089,266.0625)"><path
           d="M 0,0 V 2.233 H -8.04 V -11.431 H 0 v 2.262 h -5.202 v 3.677 h 4.967 v 2.156 H -5.202 V 0 Z"
           style="fill:#ffffff;fill-opacity:1;fill-rule:nonzero;stroke:none"
           id="path274" /></g><g
         id="g276"
         transform="translate(417.3521,261.0166)"><path
           d="M 0,0 -4.601,7.279 H -8.384 V -6.385 h 2.759 l -0.027,7.15 c 0,1.258 -0.024,2.101 -0.078,2.862 h 0.026 c 0.369,-0.813 0.867,-1.783 1.393,-2.6 L 0.393,-6.385 H 4.175 V 7.279 H 1.416 L 1.443,1.264 c 0,-1.761 0.028,-3.075 0.078,-3.942 H 1.498 C 1.051,-1.732 0.525,-0.839 0,0"
           style="fill:#ffffff;fill-opacity:1;fill-rule:nonzero;stroke:none"
           id="path278" /></g><g
         id="g280"
         transform="translate(429.9648,256.7363)"><path
           d="m 0,0 c -1.155,0 -2.233,0.208 -3.021,0.525 l -0.106,-2.548 c 0.761,-0.184 1.866,-0.344 2.811,-0.344 3.496,0 5.911,1.815 5.911,4.598 0,4.284 -6.095,3.261 -6.095,5.597 0,1.026 0.763,1.709 2.495,1.709 0.789,0 1.867,-0.157 2.604,-0.395 l 0.105,2.418 c -0.764,0.132 -1.813,0.236 -2.601,0.236 -3.6,0 -5.599,-1.706 -5.599,-4.281 0,-4.442 6.017,-3.18 6.017,-5.599 C 2.521,0.576 1.286,0 0,0"
           style="fill:#ffffff;fill-opacity:1;fill-rule:nonzero;stroke:none"
           id="path282" /></g><g
         id="g284"
         transform="translate(440.5293,268.2959)"><path
           d="m 0,0 v -13.664 h 2.839 v 6.413 l 5.068,-6.413 h 3.76 L 5.781,-6.569 11.376,0 H 7.883 L 2.839,-6.095 V 0 Z"
           style="fill:#ffffff;fill-opacity:1;fill-rule:nonzero;stroke:none"
           id="path286" /></g><g
         id="g288"
         transform="translate(460.4307,263.2002)"><path
           d="M 0,0 C 0.263,0.71 0.524,1.471 0.686,2.128 H 0.708 C 0.894,1.498 1.156,0.683 1.419,-0.027 L 2.838,-3.864 H -1.471 Z M -2.152,-5.914 H 3.547 L 4.52,-8.568 H 7.675 L 2.523,5.096 H -0.812 L -5.99,-8.568 h 2.838 z"
           style="fill:#ffffff;fill-opacity:1;fill-rule:nonzero;stroke:none"
           id="path290" /></g><g
         id="g292"
         transform="translate(476.25,261.334)"><path
           d="m 0,0 c -0.367,0 -0.893,0.024 -1.208,0.105 v 4.624 c 0.37,0.027 0.867,0.027 1.393,0.027 1.76,0 2.654,-0.972 2.654,-2.314 C 2.839,0.839 1.762,0 0,0 m 0.42,7.041 c -1.604,0 -3.31,-0.051 -4.466,-0.079 V -6.702 h 2.838 v 4.495 c 0.342,-0.026 0.867,-0.054 1.208,-0.054 3.47,0 5.86,1.893 5.86,4.889 0,2.759 -1.97,4.413 -5.44,4.413"
           style="fill:#ffffff;fill-opacity:1;fill-rule:nonzero;stroke:none"
           id="path294" /></g><g
         id="g296"
         transform="translate(360.9761,243.2646)"><path
           d="m 0,0 c 2.339,0 3.861,-1.604 3.861,-4.649 0,-3.05 -1.787,-4.52 -3.967,-4.52 -2.681,0 -3.783,2.05 -3.783,4.648 C -3.889,-1.575 -2.078,0 0,0 m -0.263,-11.667 c 3.916,0 7.174,2.682 7.174,7.202 0,4.624 -2.76,6.935 -6.727,6.935 -3.783,0 -7.095,-2.705 -7.095,-7.199 0,-4.098 2.207,-6.938 6.648,-6.938"
           style="fill:#ffffff;fill-opacity:1;fill-rule:nonzero;stroke:none"
           id="path298" /></g><g
         id="g300"
         transform="translate(377.8975,231.6543)"><path
           d="M 0,0 C 1.341,0 2.549,0.208 3.681,0.603 L 3.442,3.123 C 2.627,2.73 1.604,2.492 0.58,2.492 c -2.708,0 -4.284,1.552 -4.284,4.495 0,2.706 1.446,4.651 4.124,4.651 0.949,0 1.92,-0.158 2.893,-0.475 l 0.262,2.496 c -0.92,0.263 -2.05,0.369 -2.944,0.369 -5.123,0 -7.357,-3.441 -7.357,-7.303 C -6.726,2.571 -4.465,0 0,0"
           style="fill:#ffffff;fill-opacity:1;fill-rule:nonzero;stroke:none"
           id="path302" /></g><g
         id="g304"
         transform="translate(398.1597,231.834)"><path
           d="M 0,0 V 13.665 H -2.838 V 8.227 h -6.44 v 5.438 h -2.838 V 0 h 2.838 v 5.782 h 6.44 V 0 Z"
           style="fill:#ffffff;fill-opacity:1;fill-rule:nonzero;stroke:none"
           id="path306" /></g><g
         id="g308"
         transform="translate(413.1479,238.2471)"><path
           d="M 0,0 5.07,-6.413 H 8.829 L 2.94,0.682 8.539,7.252 H 5.045 L 0,1.156 V 7.252 H -2.838 V -6.413 H 0 Z"
           style="fill:#ffffff;fill-opacity:1;fill-rule:nonzero;stroke:none"
           id="path310" /></g><g
         id="g312"
         transform="translate(430.7812,243.2646)"><path
           d="m 0,0 c 2.337,0 3.861,-1.604 3.861,-4.649 0,-3.05 -1.789,-4.52 -3.968,-4.52 -2.68,0 -3.782,2.05 -3.782,4.648 C -3.889,-1.575 -2.077,0 0,0 m -0.263,-11.667 c 3.915,0 7.173,2.682 7.173,7.202 0,4.624 -2.76,6.935 -6.726,6.935 -3.787,0 -7.096,-2.705 -7.096,-7.199 0,-4.098 2.207,-6.938 6.649,-6.938"
           style="fill:#ffffff;fill-opacity:1;fill-rule:nonzero;stroke:none"
           id="path314" /></g><g
         id="g316"
         transform="translate(445.9561,239.2461)"><path
           d="M 0,0 4.703,-7.412 H 8.485 V 6.253 H 5.729 L 5.755,0.236 c 0,-1.76 0.026,-3.074 0.078,-3.941 H 5.809 C 5.362,-2.76 4.837,-1.866 4.312,-1.026 L -0.287,6.253 H -4.074 V -7.412 h 2.761 l -0.027,7.149 c 0,1.259 -0.024,2.102 -0.079,2.863 h 0.027 C -1.024,1.788 -0.525,0.814 0,0"
           style="fill:#ffffff;fill-opacity:1;fill-rule:nonzero;stroke:none"
           id="path318" /></g><g
         id="g320"
         transform="translate(462.75,233.9385)"><path
           d="m 0,0 c -1.155,0 -2.233,0.208 -3.021,0.525 l -0.106,-2.548 c 0.761,-0.184 1.866,-0.344 2.812,-0.344 3.495,0 5.911,1.815 5.911,4.598 0,4.285 -6.095,3.26 -6.095,5.597 0,1.026 0.762,1.709 2.496,1.709 0.788,0 1.866,-0.157 2.602,-0.395 l 0.106,2.419 c -0.764,0.131 -1.814,0.235 -2.603,0.235 -3.598,0 -5.597,-1.706 -5.597,-4.281 0,-4.442 6.017,-3.18 6.017,-5.597 C 2.522,0.576 1.288,0 0,0"
           style="fill:#ffffff;fill-opacity:1;fill-rule:nonzero;stroke:none"
           id="path322" /></g><g
         id="g324"
         transform="translate(477.7207,231.834)"><path
           d="m 0,0 v 11.246 h 3.783 v 2.419 H -6.62 v -2.419 h 3.782 V 0 Z"
           style="fill:#ffffff;fill-opacity:1;fill-rule:nonzero;stroke:none"
           id="path326" /></g><g
         id="g328"
         transform="translate(371.8008,284.2158)"><path
           d="M 0,0 -0.34,0.042 C -7.513,0.933 -7.555,2.353 -7.727,8.315 V 18.676 L 4.262,5.635 c 4.57,-5.01 7.089,-7.771 13.742,-7.771 1.237,0 2.606,0.094 4.186,0.287 l 0.335,0.039 0.027,1.602 -0.377,0.016 c -3.997,0.173 -6.177,2.439 -10.52,6.945 -0.6,0.625 -1.237,1.285 -1.912,1.976 l -11.681,13 4.701,4.807 1.005,1.053 c 3.951,4.153 8.43,8.858 14.402,9.488 l 0.347,0.037 v 1.601 H 2.696 V 37.114 L 3.043,37.077 C 4.609,36.911 5.451,36.546 5.692,35.925 6.138,34.77 4.748,32.402 1.448,28.695 l -9.175,-9.793 v 9.851 c 0.175,5.984 0.214,7.408 5.83,8.289 l 0.329,0.051 v 1.586 h -19.246 v -1.596 l 0.335,-0.044 c 6.653,-0.888 6.693,-2.308 6.868,-8.274 V 8.328 C -13.786,2.35 -13.826,0.929 -20.479,0.042 l -0.335,-0.045 V -1.598 H 0 Z"
           style="fill:#ffffff;fill-opacity:1;fill-rule:nonzero;stroke:none"
           id="path330" /></g><g
         id="g332"
         transform="translate(424.3203,284.2187)"><path
           d="m 0,0 -0.34,0.039 c -7.507,0.897 -7.79,2.6 -7.79,9.667 v 26.455 h 3.1 c 6.861,0 9.663,-2.126 11.533,-8.76 l 0.1,-0.346 1.493,0.323 -0.74,11.359 h -36.88 l -0.721,-11.359 1.493,-0.323 0.1,0.346 c 1.87,6.634 4.672,8.76 11.537,8.76 h 3.1 V 9.706 c 0,-7.067 -0.287,-8.77 -7.794,-9.667 L -22.146,0 V -1.601 H 0 Z"
           style="fill:#ffffff;fill-opacity:1;fill-rule:nonzero;stroke:none"
           id="path334" /></g><g
         id="g336"
         transform="translate(483.5283,321.2544)"><path
           d="M 0,0 0.334,0.045 V 1.64 H -20.48 V 0.048 L -20.151,0 c 7.398,-1.074 7.398,-2.033 7.398,-8.273 v -8.039 h -21.002 v 8.039 c 0,6.24 0,7.199 7.396,8.273 l 0.332,0.048 V 1.64 H -46.841 V 0.045 L -46.506,0 c 6.653,-0.887 6.693,-2.307 6.867,-8.273 V -28.71 c -0.174,-5.979 -0.214,-7.4 -6.867,-8.287 l -0.335,-0.045 v -1.594 h 20.814 v 1.591 l -0.332,0.048 c -7.396,1.075 -7.396,2.034 -7.396,8.274 v 9.199 h 21.002 v -9.199 c 0,-6.24 0,-7.199 -7.398,-8.274 l -0.329,-0.048 v -1.591 H 0.334 v 1.594 L 0,-36.997 c -6.653,0.887 -6.692,2.308 -6.867,8.274 V -8.286 C -6.692,-2.307 -6.653,-0.887 0,0"
           style="fill:#ffffff;fill-opacity:1;fill-rule:nonzero;stroke:none"
           id="path338" /></g><g
         id="g340"
         transform="translate(368.3281,385.8506)"><path
           d="M 0,0 C 1.659,0 3.01,-1.351 3.01,-3.009 3.01,-3.551 2.855,-4.05 2.604,-4.489 2.49,-4.48 2.375,-4.472 2.259,-4.472 0.942,-4.472 -0.231,-5.067 -1.02,-6 -1.953,-5.422 -3.007,-4.1 -3.007,-3.009 -3.007,-1.351 -1.659,0 0,0 m 0.166,5.263 c 0,1.252 1.017,2.269 2.265,2.269 1.255,0 2.274,-1.017 2.274,-2.269 0,-1.251 -1.019,-2.267 -2.274,-2.267 -1.248,0 -2.265,1.016 -2.265,2.267 m 6.702,7.505 c 0.881,0 1.596,-0.715 1.596,-1.599 0,-0.881 -0.715,-1.595 -1.596,-1.595 -0.884,0 -1.602,0.714 -1.602,1.595 0,0.884 0.718,1.599 1.602,1.599 m 14.64,2.801 c 0.067,-0.117 0.133,-0.238 0.208,-0.35 -2.075,-0.193 -3.71,-1.924 -3.71,-4.05 0,-1.514 0.833,-2.823 2.057,-3.529 C 18.589,6.795 17.59,5.209 17.59,3.39 c 0,-2.256 1.538,-4.156 3.62,-4.72 -0.076,-0.48 -0.076,-0.977 0.023,-1.481 0,0 0.082,-0.226 0.155,-0.422 -0.26,-0.003 -0.532,0.048 -0.779,-0.003 -2.289,-0.45 -3.791,-2.675 -3.338,-4.965 0.446,-2.283 2.675,-3.785 4.964,-3.335 1.741,0.34 3.011,1.715 3.324,3.359 0.097,-0.316 0.305,-1.173 0.347,-1.393 0.464,-2.355 -1.08,-4.651 -3.436,-5.113 -2.199,-0.431 -4.367,0.233 -5.927,1.62 -0.575,-2.002 -2.047,-3.724 -4.137,-4.539 -2.099,-0.819 -4.45,0.109 -5.455,2.074 0.264,0.224 0.497,0.481 0.702,0.76 3.489,-1.265 5.267,1.362 5.578,2.085 1.295,3.014 -0.683,6.136 -3.874,6.163 C 8.332,-6.51 7.392,-6.879 6.652,-7.478 6.571,-7.535 6.49,-7.594 6.406,-7.647 6.378,-7.545 6.141,-6 4.132,-4.906 c 0.171,0.506 0.389,1.085 0.436,1.946 0.139,2.469 -0.152,3.375 1.54,7.255 2.081,4.238 6.629,8.478 15.4,11.274 m -9.223,0.757 c 0.724,0 1.312,-0.591 1.312,-1.315 0,-0.726 -0.588,-1.318 -1.312,-1.318 -0.73,0 -1.322,0.592 -1.322,1.318 0,0.724 0.592,1.315 1.322,1.315 m 5.806,2.392 c 0.576,0 1.047,-0.47 1.047,-1.049 0,-0.58 -0.471,-1.05 -1.047,-1.05 -0.579,0 -1.049,0.47 -1.049,1.05 0,0.579 0.47,1.049 1.049,1.049 m 4.005,-5.004 c 1.403,0 2.546,-1.142 2.546,-2.545 0,-1.406 -1.143,-2.548 -2.546,-2.548 -1.406,0 -2.545,1.142 -2.545,2.548 0,1.403 1.139,2.545 2.545,2.545 m 2.594,5.632 c 1.14,0 2.066,-0.929 2.066,-2.073 0,-1.142 -0.926,-2.071 -2.066,-2.071 -1.146,0 -2.075,0.929 -2.075,2.071 0,1.144 0.929,2.073 2.075,2.073 M 21.75,0.127 c -1.494,0.338 -2.615,1.671 -2.615,3.263 0,1.849 1.505,3.351 3.353,3.351 1.849,0 3.354,-1.502 3.354,-3.351 0,-0.41 -0.084,-0.802 -0.219,-1.167 -0.342,0.019 -0.688,0 -1.039,-0.07 C 23.345,1.913 22.34,1.144 21.75,0.127 m 7.079,-5.308 c 0,-1.533 -1.243,-2.778 -2.778,-2.778 -1.534,0 -2.779,1.245 -2.779,2.778 0,1.534 1.245,2.778 2.779,2.778 1.535,0 2.778,-1.244 2.778,-2.778 m 16.443,28.409 c 0.082,-0.048 0.166,-0.1 0.25,-0.145 C 42.968,16.692 42.7,2.386 42.7,2.386 L 44.21,1.412 C 44.099,1.029 44.036,0.625 44.036,0.206 c 0,0 0.036,-0.239 0.069,-0.447 -0.253,0.045 -0.513,0.148 -0.766,0.148 -2.331,0 -4.231,-1.898 -4.231,-4.232 0,-2.329 1.9,-4.226 4.231,-4.226 1.774,0 3.285,1.105 3.912,2.658 0.03,-0.329 0.069,-1.21 0.069,-1.436 0,-2.401 -1.954,-4.358 -4.355,-4.358 -2.24,0 -4.099,1.101 -5.362,2.756 -0.927,-1.873 -2.535,-3.284 -4.736,-3.713 -2.359,-0.464 -4.654,1.081 -5.116,3.436 -0.042,0.224 -0.168,1.092 -0.201,1.423 0.913,-1.405 2.605,-2.198 4.346,-1.858 2.292,0.45 3.785,2.676 3.338,4.962 -0.446,2.289 -2.674,3.788 -4.961,3.339 -0.25,-0.049 -0.473,-0.187 -0.709,-0.283 -0.002,0.208 -0.015,0.44 -0.015,0.44 -0.201,1.041 -0.775,1.912 -1.547,2.518 l 0.622,1.078 C 26.159,7.516 24.361,22.045 45.272,23.228 M 29.187,22.715 c 0.83,0 1.505,-0.676 1.505,-1.508 0,-0.83 -0.675,-1.503 -1.505,-1.503 -0.833,0 -1.511,0.673 -1.511,1.503 0,0.832 0.678,1.508 1.511,1.508 m 4.887,2.392 c 0.666,0 1.209,-0.543 1.209,-1.215 0,-0.671 -0.543,-1.217 -1.209,-1.217 -0.673,0 -1.222,0.546 -1.222,1.217 0,0.672 0.549,1.215 1.222,1.215 m 5.55,1.306 c 0.53,0 0.964,-0.434 0.964,-0.969 0,-0.537 -0.434,-0.974 -0.964,-0.974 -0.538,0 -0.975,0.437 -0.975,0.974 0,0.535 0.437,0.969 0.975,0.969 m 4.308,2.31 h 3.227 c -0.713,-0.401 -1.201,-1.155 -1.201,-2.033 0,-0.19 0.028,-0.374 0.07,-0.549 -0.534,-0.006 -1.035,-0.015 -1.415,-0.027 -0.437,0.673 -0.697,1.472 -0.697,2.334 0,0.094 0.01,0.184 0.016,0.275 m 3.304,3.929 V 30.35 h -2.861 c 0.558,1.109 1.624,2.004 2.861,2.302 m 1.059,-7.847 c 0.802,0 1.455,-0.65 1.455,-1.452 0,-0.802 -0.653,-1.453 -1.455,-1.453 -0.803,0 -1.453,0.651 -1.453,1.453 0,0.802 0.65,1.452 1.453,1.452 m -0.002,2.858 c 0.535,0 0.969,-0.433 0.969,-0.966 0,-0.534 -0.434,-0.967 -0.969,-0.967 -0.533,0 -0.965,0.433 -0.965,0.967 0,0.533 0.432,0.966 0.965,0.966 m 1.062,4.989 c 1.244,-0.298 2.314,-1.193 2.873,-2.302 h -2.873 z m 3.316,-3.929 c 0.005,-0.091 0.015,-0.181 0.015,-0.275 0,-0.862 -0.259,-1.661 -0.698,-2.334 -0.38,0.012 -0.882,0.021 -1.418,0.027 0.042,0.175 0.07,0.359 0.07,0.549 0,0.878 -0.491,1.632 -1.207,2.033 z M 67.979,2.411 68.601,1.333 c -0.773,-0.606 -1.347,-1.477 -1.548,-2.518 0,0 -0.011,-0.232 -0.015,-0.44 -0.236,0.096 -0.459,0.234 -0.709,0.283 -2.286,0.449 -4.516,-1.05 -4.961,-3.339 -0.447,-2.286 1.046,-4.512 3.338,-4.962 1.741,-0.34 3.433,0.453 4.347,1.858 -0.034,-0.331 -0.16,-1.199 -0.203,-1.423 -0.461,-2.355 -2.755,-3.9 -5.116,-3.436 -2.201,0.429 -3.808,1.84 -4.735,3.713 -1.263,-1.655 -3.121,-2.756 -5.363,-2.756 -2.402,0 -4.365,1.957 -4.365,4.358 0,0.226 0.04,1.107 0.069,1.436 0.631,-1.553 2.15,-2.658 3.923,-2.658 2.332,0 4.231,1.897 4.231,4.226 0,2.334 -1.899,4.232 -4.231,4.232 -0.253,0 -0.513,-0.103 -0.766,-0.148 0.033,0.208 0.069,0.447 0.069,0.447 0,0.419 -0.064,0.823 -0.175,1.206 l 1.512,0.974 c 0,0 -0.269,14.306 -2.826,20.697 0.086,0.045 0.17,0.097 0.252,0.145 C 72.24,22.045 70.443,7.516 67.979,2.411 m -11,24.002 c 0.537,0 0.975,-0.434 0.975,-0.969 0,-0.537 -0.438,-0.974 -0.975,-0.974 -0.531,0 -0.966,0.437 -0.966,0.974 0,0.535 0.435,0.969 0.966,0.969 m 5.549,-1.306 c 0.673,0 1.222,-0.543 1.222,-1.215 0,-0.671 -0.549,-1.217 -1.222,-1.217 -0.665,0 -1.209,0.546 -1.209,1.217 0,0.672 0.544,1.215 1.209,1.215 m 4.887,-2.392 c 0.833,0 1.512,-0.676 1.512,-1.508 0,-0.83 -0.679,-1.503 -1.512,-1.503 -0.829,0 -1.506,0.673 -1.506,1.503 0,0.832 0.677,1.508 1.506,1.508 m 3.136,-25.118 c 1.534,0 2.778,-1.244 2.778,-2.778 0,-1.533 -1.244,-2.778 -2.778,-2.778 -1.534,0 -2.778,1.245 -2.778,2.778 0,1.534 1.244,2.778 2.778,2.778 m 1.36,21.749 c 1.147,0 2.076,-0.929 2.076,-2.073 0,-1.142 -0.929,-2.071 -2.076,-2.071 -1.14,0 -2.065,0.929 -2.065,2.071 0,1.144 0.925,2.073 2.065,2.073 m 5.14,-8.177 c 0,-1.406 -1.14,-2.548 -2.545,-2.548 -1.402,0 -2.546,1.142 -2.546,2.548 0,1.403 1.144,2.545 2.546,2.545 1.405,0 2.545,-1.142 2.545,-2.545 M 72.018,2.153 C 71.667,2.223 71.32,2.242 70.979,2.223 70.844,2.588 70.76,2.98 70.76,3.39 c 0,1.849 1.504,3.351 3.353,3.351 1.85,0 3.354,-1.502 3.354,-3.351 0,-1.592 -1.121,-2.925 -2.614,-3.263 -0.591,1.017 -1.595,1.786 -2.835,2.026 m 3.076,13.416 C 83.865,12.773 88.413,8.533 90.495,4.295 92.187,0.415 91.896,-0.491 92.034,-2.96 92.081,-3.821 92.299,-4.4 92.47,-4.906 90.462,-6 90.224,-7.545 90.195,-7.647 c -0.084,0.053 -0.164,0.112 -0.246,0.169 -0.738,0.599 -1.678,0.968 -2.703,0.958 -3.192,-0.027 -5.169,-3.149 -3.876,-6.163 0.312,-0.723 2.091,-3.35 5.579,-2.085 0.204,-0.279 0.438,-0.536 0.701,-0.76 -1.004,-1.965 -3.355,-2.893 -5.454,-2.074 -2.091,0.815 -3.561,2.537 -4.137,4.539 -1.56,-1.387 -3.729,-2.051 -5.927,-1.62 -2.356,0.462 -3.9,2.758 -3.436,5.113 0.042,0.22 0.251,1.077 0.346,1.393 0.315,-1.644 1.584,-3.019 3.324,-3.359 2.29,-0.45 4.519,1.052 4.965,3.335 0.452,2.29 -1.049,4.515 -3.339,4.965 -0.247,0.051 -0.517,0 -0.778,0.003 0.073,0.196 0.154,0.422 0.154,0.422 0.1,0.504 0.1,1.001 0.024,1.481 2.082,0.564 3.62,2.464 3.62,4.72 0,1.819 -0.999,3.405 -2.474,4.25 1.226,0.706 2.058,2.015 2.058,3.529 0,2.126 -1.635,3.857 -3.71,4.05 0.075,0.112 0.142,0.233 0.208,0.35 m 3.417,3.149 c 0.58,0 1.05,-0.47 1.05,-1.049 0,-0.58 -0.47,-1.05 -1.05,-1.05 -0.575,0 -1.046,0.47 -1.046,1.05 0,0.579 0.471,1.049 1.046,1.049 m 5.806,-2.392 c 0.73,0 1.322,-0.591 1.322,-1.315 0,-0.726 -0.592,-1.318 -1.322,-1.318 -0.723,0 -1.311,0.592 -1.311,1.318 0,0.724 0.588,1.315 1.311,1.315 m 5.416,-3.558 c 0.884,0 1.602,-0.715 1.602,-1.599 0,-0.881 -0.718,-1.595 -1.602,-1.595 -0.879,0 -1.594,0.714 -1.594,1.595 0,0.884 0.715,1.599 1.594,1.599 m 4.439,-5.236 c 1.249,0 2.264,-1.017 2.264,-2.269 0,-1.251 -1.015,-2.267 -2.264,-2.267 -1.256,0 -2.276,1.016 -2.276,2.267 0,1.252 1.02,2.269 2.276,2.269 M 96.603,0 c 1.658,0 3.006,-1.351 3.006,-3.009 0,-1.091 -1.054,-2.413 -1.988,-2.991 -0.788,0.933 -1.961,1.528 -3.278,1.528 -0.116,0 -0.231,-0.008 -0.344,-0.017 -0.252,0.439 -0.407,0.938 -0.407,1.48 0,1.658 1.35,3.009 3.011,3.009 m -4.078,-14.964 c -1.546,0 -2.796,1.253 -2.796,2.798 0,0.755 0.298,1.441 0.785,1.944 0.506,0.535 1.223,0.869 2.018,0.869 1.202,0 2.226,-0.762 2.613,-1.829 0.115,-0.306 0.178,-0.637 0.178,-0.984 0,-1.545 -1.253,-2.798 -2.798,-2.798 M 48.287,9.266 c 1.894,0 3.431,-1.531 3.431,-3.42 0,-0.865 -0.322,-1.654 -0.853,-2.256 -0.716,0.541 -1.608,0.863 -2.572,0.863 -0.967,0 -1.857,-0.324 -2.571,-0.868 -0.532,0.602 -0.854,1.394 -0.854,2.261 0,1.889 1.53,3.42 3.419,3.42 m -2.145,9.661 c 0,1.189 0.964,2.153 2.153,2.153 1.192,0 2.161,-0.964 2.161,-2.153 0,-1.19 -0.969,-2.154 -2.161,-2.154 -1.189,0 -2.153,0.964 -2.153,2.154 m 2.153,-3.063 c 1.529,0 2.771,-1.236 2.771,-2.76 0,-1.524 -1.242,-2.761 -2.771,-2.761 -1.524,0 -2.76,1.237 -2.76,2.761 0,1.524 1.236,2.76 2.76,2.76 M 48.291,-5.805 c -1.534,0 -2.778,1.244 -2.778,2.779 0,1.533 1.244,2.777 2.778,2.777 1.539,0 2.788,-1.244 2.788,-2.777 0,-1.535 -1.249,-2.779 -2.788,-2.779 m -44.222,-9.16 c -1.545,0 -2.798,1.254 -2.798,2.799 0,0.583 0.179,1.126 0.485,1.575 0.498,0.747 1.348,1.238 2.313,1.238 0.964,0 1.814,-0.491 2.312,-1.236 0.306,-0.45 0.486,-0.992 0.486,-1.577 0,-1.545 -1.252,-2.799 -2.798,-2.799 m -3.938,4.743 c -0.14,-0.286 -1.086,-2.278 0.306,-4.409 1.515,-2.321 4.091,-1.921 4.177,-1.911 1.778,-2.248 4.747,-4.929 7.174,-4.236 0,0 15.292,7.088 36.498,7.118 h 0.018 c 21.218,-0.03 36.511,-7.118 36.511,-7.118 2.426,-0.693 5.396,1.988 7.173,4.236 0.086,-0.01 2.661,-0.41 4.177,1.911 1.392,2.131 0.446,4.123 0.306,4.409 1.268,2.055 3.219,3.879 3.219,3.879 0.9,0.833 1.463,2.015 1.463,3.334 0,2.509 -2.042,4.553 -4.55,4.553 -0.204,0 -0.4,-0.018 -0.593,-0.042 -0.032,0.127 -0.075,0.257 -0.111,0.383 1.231,0.634 2.081,1.904 2.081,3.378 0,2.103 -1.709,3.813 -3.808,3.813 -0.707,0 -1.359,-0.205 -1.925,-0.537 -0.108,0.127 -0.214,0.253 -0.33,0.38 0.593,0.57 0.962,1.366 0.962,2.25 0,1.734 -1.41,3.143 -3.146,3.143 -1.063,0 -2.001,-0.534 -2.569,-1.348 -0.181,0.12 -0.361,0.238 -0.546,0.355 0.351,0.477 0.565,1.059 0.565,1.692 0,1.578 -1.286,2.86 -2.866,2.86 -1.237,0 -2.283,-0.796 -2.678,-1.9 -0.295,0.129 -0.601,0.257 -0.905,0.383 0.233,0.386 0.371,0.832 0.371,1.315 0,1.429 -1.165,2.594 -2.594,2.594 -1.29,0 -2.359,-0.953 -2.552,-2.196 -0.195,0.06 -0.379,0.123 -0.578,0.183 -0.432,1.518 -1.814,2.64 -3.47,2.64 -0.367,0 -0.721,-0.063 -1.052,-0.169 -0.13,0.109 -0.262,0.215 -0.398,0.317 0.004,0.057 0.01,0.111 0.01,0.169 0,1.683 -1.37,3.052 -3.056,3.052 -0.664,0 -1.273,-0.217 -1.771,-0.579 -0.122,0.046 -0.238,0.093 -0.358,0.138 0,0.025 0.008,0.049 0.008,0.074 0,1.523 -1.238,2.759 -2.766,2.759 -1.031,0 -1.924,-0.579 -2.394,-1.424 -0.212,0.04 -0.428,0.079 -0.649,0.118 0.003,0.033 0.013,0.066 0.013,0.099 0,1.385 -1.132,2.513 -2.519,2.513 -1.203,0 -2.211,-0.853 -2.452,-1.988 -0.242,0.019 -0.492,0.036 -0.739,0.052 0.305,0.714 0.473,1.499 0.473,2.322 0,2.283 -1.293,4.268 -3.19,5.266 0,0 -0.697,0.362 -1.706,0.561 v 4.542 h 2.553 c 0.087,0.102 0.259,0.45 0.259,1.068 0,0.609 -0.172,0.956 -0.259,1.059 h -2.553 v 2.546 c -0.106,0.087 -0.455,0.256 -1.069,0.256 h -10e-4 c -0.615,0 -0.962,-0.169 -1.068,-0.256 v -2.546 h -2.543 c -0.087,-0.103 -0.259,-0.45 -0.259,-1.059 0,-0.618 0.172,-0.966 0.259,-1.068 h 2.543 V 34.17 c -1.005,-0.199 -1.699,-0.561 -1.699,-0.561 -1.893,-0.998 -3.188,-2.983 -3.188,-5.266 0,-0.823 0.169,-1.608 0.474,-2.322 -0.247,-0.016 -0.498,-0.033 -0.739,-0.052 -0.241,1.135 -1.248,1.988 -2.451,1.988 -1.388,0 -2.52,-1.128 -2.52,-2.513 0,-0.033 0.01,-0.066 0.013,-0.099 -0.221,-0.039 -0.437,-0.078 -0.649,-0.118 -0.47,0.845 -1.363,1.424 -2.394,1.424 -1.527,0 -2.766,-1.236 -2.766,-2.759 0,-0.025 0.008,-0.049 0.008,-0.074 -0.12,-0.045 -0.238,-0.092 -0.358,-0.138 -0.498,0.362 -1.107,0.579 -1.771,0.579 -1.686,0 -3.055,-1.369 -3.055,-3.052 0,-0.058 0.006,-0.112 0.009,-0.169 -0.136,-0.102 -0.268,-0.208 -0.398,-0.317 -0.331,0.106 -0.685,0.169 -1.053,0.169 -1.656,0 -3.037,-1.122 -3.468,-2.64 -0.2,-0.06 -0.383,-0.123 -0.579,-0.183 -0.193,1.243 -1.261,2.196 -2.552,2.196 -1.429,0 -2.594,-1.165 -2.594,-2.594 0,-0.483 0.139,-0.929 0.371,-1.315 -0.305,-0.126 -0.609,-0.254 -0.905,-0.383 -0.395,1.104 -1.442,1.9 -2.678,1.9 -1.581,0 -2.866,-1.282 -2.866,-2.86 0,-0.633 0.214,-1.215 0.564,-1.692 -0.184,-0.117 -0.364,-0.235 -0.545,-0.355 -0.567,0.814 -1.505,1.348 -2.57,1.348 -1.734,0 -3.146,-1.409 -3.146,-3.143 0,-0.884 0.371,-1.68 0.963,-2.25 C 4.569,8.792 4.464,8.666 4.355,8.539 3.788,8.871 3.137,9.076 2.431,9.076 c -2.099,0 -3.809,-1.71 -3.809,-3.813 0,-1.474 0.85,-2.744 2.081,-3.378 C 0.667,1.759 0.625,1.629 0.592,1.502 0.398,1.526 0.202,1.544 0,1.544 c -2.509,0 -4.551,-2.044 -4.551,-4.553 0,-1.319 0.563,-2.501 1.463,-3.334 0,0 1.95,-1.824 3.219,-3.879"
           style="fill:#ffffff;fill-opacity:1;fill-rule:nonzero;stroke:none"
           id="path342" /></g><g
         id="g344"
         transform="translate(447.5752,353.3042)"><path
           d="m 0,0 c 0.401,0 0.778,0.244 0.927,0.642 0.185,0.513 -0.073,1.08 -0.582,1.27 -9.866,3.655 -20.276,5.507 -30.954,5.507 h -0.688 c -10.668,0 -21.08,-1.852 -30.943,-5.507 -0.513,-0.19 -0.772,-0.757 -0.582,-1.27 0.187,-0.51 0.757,-0.772 1.267,-0.582 9.645,3.574 19.825,5.387 30.258,5.387 h 0.688 C -20.165,5.447 -9.986,3.634 -0.343,0.06 -0.229,0.018 -0.114,0 0,0"
           style="fill:#ffffff;fill-opacity:1;fill-rule:nonzero;stroke:none"
           id="path346" /></g><g
         id="g348"
         transform="translate(447.6152,361.2271)"><path
           d="M 0,0 C 1.239,0.205 2.6,0.428 3.284,0.543 3.508,-0.06 3.81,-0.869 4.045,-1.49 3.462,-1.813 2.708,-2.232 2.144,-2.545 1.697,-2.015 0.809,-0.959 0,0 m -9.953,3.025 c -0.184,-0.908 -1.076,-1.493 -1.988,-1.306 l -3.315,0.679 c -0.913,0.189 -1.498,1.08 -1.314,1.99 0.185,0.911 1.078,1.503 1.99,1.312 l 3.318,-0.684 c 0.917,-0.187 1.498,-1.08 1.309,-1.991 m -21.045,0.299 -3.464,1.981 3.47,1.985 3.478,-1.985 z M -46.723,2.398 -50.038,1.719 c -0.91,-0.187 -1.803,0.398 -1.987,1.306 -0.19,0.911 0.392,1.804 1.309,1.991 l 3.318,0.684 c 0.911,0.191 1.803,-0.401 1.99,-1.312 0.184,-0.91 -0.401,-1.801 -1.315,-1.99 m -17.4,-4.943 c -0.564,0.313 -1.317,0.732 -1.9,1.055 0.235,0.621 0.537,1.43 0.76,2.033 0.684,-0.115 2.045,-0.338 3.285,-0.543 -0.809,-0.959 -1.698,-2.015 -2.145,-2.545 M 5.917,-2.181 4.482,1.656 4.265,2.238 2.416,1.934 c -10.11,3.878 -20.751,5.938 -31.665,6.134 l -1.749,0.999 -1.738,-0.999 C -43.644,7.872 -54.284,5.812 -64.394,1.934 l -1.849,0.304 -0.217,-0.582 -1.436,-3.837 4.126,-2.292 1.331,1.58 c 9.379,3.518 19.236,5.417 29.337,5.643 l 2.104,-1.203 2.116,1.203 C -18.775,2.524 -8.919,0.625 0.461,-2.893 l 1.33,-1.58 z"
           style="fill:#ffffff;fill-opacity:1;fill-rule:nonzero;stroke:none"
           id="path350" /></g></g></g></svg>
