<?xml version="1.0" encoding="UTF-8" standalone="no"?>
<svg
   width="180"
   height="71"
   version="1.1"
   id="svg24"
   sodipodi:docname="wri_logo_color_0.svg"
   viewBox="-5 -5 180 71"
   inkscape:version="1.2.2 (732a01da63, 2022-12-09)"
   xmlns:inkscape="http://www.inkscape.org/namespaces/inkscape"
   xmlns:sodipodi="http://sodipodi.sourceforge.net/DTD/sodipodi-0.dtd"
   xmlns:xlink="http://www.w3.org/1999/xlink"
   xmlns="http://www.w3.org/2000/svg"
   xmlns:svg="http://www.w3.org/2000/svg">
  <sodipodi:namedview
     id="namedview26"
     pagecolor="#ffffff"
     bordercolor="#000000"
     borderopacity="0.25"
     inkscape:showpageshadow="2"
     inkscape:pageopacity="0.0"
     inkscape:pagecheckerboard="0"
     inkscape:deskcolor="#d1d1d1"
     showgrid="false"
     inkscape:zoom="3.1757413"
     inkscape:cx="101.39365"
     inkscape:cy="33.063146"
     inkscape:window-width="1920"
     inkscape:window-height="986"
     inkscape:window-x="-11"
     inkscape:window-y="-11"
     inkscape:window-maximized="1"
     inkscape:current-layer="svg24" />
  <defs
     id="defs3">
    <path
       id="a"
       d="M 0.21,0.077 H 24.448 V 28.375 H 0.21 Z" />
  </defs>
  <g
     fill="none"
     fill-rule="evenodd"
     id="g22">
    <path
       fill="#f3b229"
       d="m 16.513,4.92 -3.267,3.266 3.078,3.078 3.267,-3.267 -3.078,-3.078 m 21.845,28.379 11.81,11.809 3.266,-3.267 -11.81,-11.81 -3.266,3.268 M 12.821,16.4 16.088,19.667 29.132,6.623 33.779,11.27 37.046,8.003 29.132,0.09 12.822,16.4 m 34.26,0.006 3.267,3.267 3.085,-3.085 -3.267,-3.267 -3.085,3.085 M 13.246,50.243 16.513,53.51 28.322,41.7 25.055,38.433 13.246,50.242 M 29.955,33.534 33.222,36.801 45.449,24.573 42.182,21.307 29.955,33.534"
       id="path5" />
    <path
       fill="#f3b229"
       d="m 38.68,16.17 13.049,13.05 -4.64,4.642 3.266,3.266 7.908,-7.907 -16.317,-16.317 -3.267,3.266 m -33.836,25.67 3.266,3.266 3.072,-3.07 -3.267,-3.267 -3.071,3.07 M 29.955,16.728 33.222,19.994 45.03,8.185 41.763,4.918 29.953,16.728 M 0,29.221 16.317,45.538 19.584,42.271 6.534,29.221 11.188,24.567 7.92,21.3 0,29.221 M 21.224,16.164 33.458,28.397 36.724,25.131 24.491,12.897 21.224,16.164 m 17.461,34.268 3.079,3.078 3.267,-3.267 -3.079,-3.078 -3.267,3.267 M 4.843,16.59 16.651,28.397 19.918,25.131 8.11,13.323 4.843,16.589"
       id="path7" />
    <g
       transform="translate(21.007,29.954)"
       id="g16">
      <mask
         id="b"
         fill="#ffffff">
        <use
           xlink:href="#a"
           id="use9" />
      </mask>
      <path
         fill="#f3b229"
         mask="url(#b)"
         d="M 0.545,3.344 12.778,15.577 16.045,12.31 3.812,0.077 0.545,3.344"
         id="path12" />
      <path
         fill="#f3b229"
         mask="url(#b)"
         d="M 8.124,21.865 3.477,17.217 0.21,20.484 8.124,28.398 24.448,12.074 21.182,8.807 8.124,21.865"
         id="path14" />
    </g>
    <path
       fill="#f3b229"
       d="m 12.814,33.868 3.267,3.267 12.24,-12.24 -3.266,-3.267 -12.24,12.24"
       id="path18" />
    <path
       d="M 74.779,6.51 C 74.635,6.051 74.494,5.75 74.317,5.63 74.182,5.537 73.931,5.517 73.822,5.517 c -0.128,0 -0.205,-0.013 -0.205,-0.115 0,-0.087 0.106,-0.109 0.275,-0.109 0.653,0 1.338,0.03 1.453,0.03 0.114,0 0.663,-0.03 1.387,-0.03 0.17,0 0.26,0.03 0.26,0.11 0,0.101 -0.101,0.114 -0.225,0.114 -0.099,0 -0.223,0 -0.31,0.046 -0.113,0.052 -0.139,0.138 -0.139,0.273 0,0.167 0.124,0.59 0.277,1.148 0.21,0.828 1.371,4.616 1.597,5.314 h 0.036 L 80.65,5.79 c 0.126,-0.354 0.21,-0.45 0.316,-0.45 0.136,0 0.197,0.19 0.364,0.59 l 2.595,6.278 h 0.036 c 0.223,-0.836 1.225,-4.134 1.666,-5.594 0.08,-0.286 0.12,-0.548 0.12,-0.728 0,-0.196 -0.11,-0.369 -0.6,-0.369 -0.12,0 -0.208,-0.042 -0.208,-0.115 0,-0.087 0.094,-0.109 0.287,-0.109 0.66,0 1.184,0.03 1.296,0.03 0.086,0 0.625,-0.03 1.037,-0.03 0.135,0 0.224,0.022 0.224,0.098 0,0.084 -0.057,0.126 -0.171,0.126 -0.127,0 -0.3,0.013 -0.439,0.06 -0.302,0.113 -0.434,0.61 -0.704,1.327 -0.568,1.572 -1.88,5.543 -2.493,7.417 -0.138,0.437 -0.2,0.588 -0.364,0.588 -0.128,0 -0.198,-0.15 -0.386,-0.617 L 80.629,8.037 H 80.6 c -0.235,0.638 -1.899,5.06 -2.435,6.205 -0.24,0.516 -0.299,0.667 -0.448,0.667 -0.127,0 -0.175,-0.137 -0.288,-0.464 L 74.78,6.51 m 23.717,3.74 c 0,-2.8 -1.61,-4.537 -3.66,-4.537 -1.435,0 -3.074,0.798 -3.074,3.91 0,2.6 1.443,4.662 3.84,4.662 0.876,0 2.894,-0.424 2.894,-4.035 z m -8.454,-0.237 c 0,-2.138 1.409,-4.896 5.16,-4.896 3.109,0 5.046,1.806 5.046,4.67 0,2.861 -2.003,5.122 -5.17,5.122 -3.587,0 -5.036,-2.686 -5.036,-4.896 z M 106.29,9.9 c 0,0.139 0.026,0.184 0.112,0.226 0.258,0.087 0.64,0.124 0.95,0.124 0.496,0 0.66,-0.053 0.889,-0.211 0.373,-0.278 0.734,-0.855 0.734,-1.882 0,-1.769 -1.168,-2.279 -1.912,-2.279 -0.312,0 -0.536,0.008 -0.66,0.053 -0.087,0.023 -0.113,0.072 -0.113,0.171 V 9.9 Z m -1.472,-0.986 c 0,-1.898 0,-2.252 -0.025,-2.648 -0.025,-0.43 -0.125,-0.627 -0.536,-0.716 a 3.197,3.197 0 0 0 -0.49,-0.033 c -0.137,0 -0.214,-0.03 -0.214,-0.115 0,-0.087 0.09,-0.109 0.273,-0.109 0.668,0 1.455,0.03 1.717,0.03 0.422,0 1.371,-0.03 1.757,-0.03 0.79,0 1.63,0.076 2.3,0.534 0.353,0.239 0.85,0.878 0.85,1.711 0,0.926 -0.386,1.768 -1.648,2.794 1.111,1.403 1.972,2.516 2.71,3.287 0.698,0.724 1.21,0.81 1.401,0.852 0.134,0.026 0.25,0.036 0.346,0.036 0.103,0 0.152,0.044 0.152,0.104 0,0.093 -0.086,0.121 -0.24,0.121 h -1.184 c -0.701,0 -1.014,-0.065 -1.333,-0.235 -0.54,-0.289 -1.018,-0.878 -1.714,-1.836 -0.5,-0.691 -1.07,-1.537 -1.24,-1.73 -0.057,-0.067 -0.134,-0.082 -0.221,-0.082 l -1.088,-0.029 c -0.06,0 -0.1,0.03 -0.1,0.1 v 0.18 c 0,1.16 0,2.145 0.062,2.671 0.038,0.36 0.109,0.64 0.49,0.685 0.187,0.03 0.457,0.051 0.607,0.051 0.101,0 0.156,0.044 0.156,0.104 0,0.086 -0.089,0.121 -0.254,0.121 -0.723,0 -1.647,-0.035 -1.833,-0.035 -0.238,0 -1.025,0.035 -1.526,0.035 -0.167,0 -0.25,-0.035 -0.25,-0.121 0,-0.06 0.05,-0.104 0.204,-0.104 0.184,0 0.333,-0.021 0.445,-0.051 0.249,-0.046 0.313,-0.325 0.363,-0.685 0.063,-0.526 0.063,-1.512 0.063,-2.659 z m 12.95,2.198 c 0,1.595 0,2.458 0.262,2.683 0.212,0.19 0.54,0.279 1.51,0.279 0.663,0 1.151,-0.017 1.463,-0.354 0.155,-0.16 0.3,-0.514 0.323,-0.746 0.014,-0.114 0.036,-0.19 0.136,-0.19 0.093,0 0.105,0.064 0.105,0.21 0,0.142 -0.09,1.08 -0.189,1.436 -0.074,0.274 -0.14,0.342 -0.79,0.342 -0.896,0 -1.544,-0.028 -2.107,-0.04 a 28.096,28.096 0 0 0 -1.526,-0.035 c -0.134,0 -0.416,0 -0.712,0.007 -0.286,0 -0.61,0.028 -0.857,0.028 -0.165,0 -0.255,-0.035 -0.255,-0.121 0,-0.06 0.056,-0.104 0.2,-0.104 0.19,0 0.338,-0.021 0.451,-0.051 0.255,-0.046 0.313,-0.325 0.36,-0.685 0.065,-0.526 0.065,-1.512 0.065,-2.659 V 8.914 c 0,-1.898 0,-2.252 -0.025,-2.648 -0.025,-0.43 -0.128,-0.627 -0.536,-0.716 a 2.309,2.309 0 0 0 -0.414,-0.033 c -0.138,0 -0.212,-0.03 -0.212,-0.115 0,-0.087 0.09,-0.109 0.273,-0.109 0.59,0 1.374,0.03 1.713,0.03 0.3,0 1.213,-0.03 1.698,-0.03 0.176,0 0.266,0.022 0.266,0.11 0,0.084 -0.077,0.114 -0.228,0.114 a 4.3,4.3 0 0 0 -0.487,0.033 c -0.338,0.065 -0.44,0.277 -0.462,0.716 -0.025,0.396 -0.025,0.75 -0.025,2.648 v 2.198 m 9.516,-0.825 c 0,1.32 0.009,2.283 0.026,2.524 0.011,0.31 0.04,0.808 0.14,0.949 0.16,0.235 0.647,0.496 1.632,0.496 1.276,0 2.126,-0.249 2.872,-0.898 0.806,-0.69 1.05,-1.823 1.05,-3.108 0,-1.585 -0.662,-2.614 -1.195,-3.126 -1.153,-1.099 -2.576,-1.246 -3.55,-1.246 -0.25,0 -0.712,0.034 -0.81,0.085 -0.112,0.052 -0.156,0.113 -0.156,0.248 -0.009,0.43 -0.009,1.516 -0.009,2.505 z m -1.56,-1.373 c 0,-1.898 0,-2.252 -0.028,-2.648 -0.025,-0.43 -0.125,-0.627 -0.536,-0.716 a 3.142,3.142 0 0 0 -0.485,-0.033 c -0.142,0 -0.216,-0.03 -0.216,-0.115 0,-0.087 0.091,-0.109 0.275,-0.109 0.663,0 1.446,0.03 1.8,0.03 0.386,0 1.175,-0.03 1.925,-0.03 1.561,0 3.648,0 5.01,1.42 0.625,0.652 1.208,1.69 1.208,3.172 0,1.575 -0.659,2.776 -1.36,3.489 -0.575,0.585 -1.873,1.472 -4.182,1.472 -0.45,0 -0.964,-0.038 -1.437,-0.074 -0.477,-0.04 -0.917,-0.075 -1.222,-0.075 -0.14,0 -0.416,0 -0.718,0.007 -0.286,0 -0.609,0.028 -0.862,0.028 -0.162,0 -0.244,-0.035 -0.244,-0.121 0,-0.06 0.05,-0.104 0.196,-0.104 0.188,0 0.34,-0.021 0.45,-0.051 0.252,-0.046 0.314,-0.325 0.365,-0.685 0.062,-0.526 0.062,-1.512 0.062,-2.659 V 8.914 Z M 77.368,30.17 c 0,0.141 0.026,0.193 0.11,0.229 0.262,0.087 0.641,0.124 0.949,0.124 0.503,0 0.665,-0.052 0.888,-0.212 0.378,-0.277 0.734,-0.848 0.734,-1.873 0,-1.775 -1.17,-2.286 -1.906,-2.286 -0.312,0 -0.54,0.012 -0.665,0.049 -0.084,0.027 -0.11,0.072 -0.11,0.174 v 3.796 z m -1.476,-0.982 c 0,-1.9 0,-2.252 -0.022,-2.65 -0.025,-0.422 -0.124,-0.624 -0.543,-0.71 a 2.446,2.446 0 0 0 -0.481,-0.036 c -0.135,0 -0.211,-0.026 -0.211,-0.119 0,-0.085 0.083,-0.113 0.276,-0.113 0.657,0 1.444,0.043 1.708,0.043 0.421,0 1.369,-0.043 1.762,-0.043 0.782,0 1.624,0.082 2.298,0.545 0.347,0.237 0.85,0.873 0.85,1.71 0,0.92 -0.392,1.772 -1.651,2.797 1.111,1.398 1.973,2.51 2.71,3.286 0.698,0.722 1.21,0.812 1.397,0.846 0.141,0.025 0.25,0.043 0.352,0.043 0.095,0 0.15,0.03 0.15,0.095 0,0.102 -0.088,0.124 -0.237,0.124 h -1.188 c -0.704,0 -1.01,-0.06 -1.338,-0.237 -0.536,-0.288 -1.01,-0.871 -1.71,-1.835 -0.499,-0.684 -1.071,-1.536 -1.235,-1.72 -0.062,-0.08 -0.141,-0.09 -0.23,-0.09 L 77.469,31.1 c -0.063,0 -0.1,0.025 -0.1,0.098 v 0.178 c 0,1.159 0,2.143 0.061,2.67 0.04,0.36 0.113,0.637 0.487,0.687 0.188,0.026 0.464,0.054 0.61,0.054 0.102,0 0.153,0.03 0.153,0.095 0,0.085 -0.09,0.124 -0.253,0.124 -0.723,0 -1.646,-0.039 -1.832,-0.039 -0.24,0 -1.027,0.039 -1.523,0.039 -0.16,0 -0.255,-0.039 -0.255,-0.124 0,-0.064 0.053,-0.095 0.202,-0.095 0.188,0 0.34,-0.028 0.454,-0.054 0.248,-0.05 0.311,-0.327 0.361,-0.687 0.058,-0.527 0.058,-1.511 0.058,-2.663 z m 11.39,0 c 0,-1.9 0,-2.252 -0.023,-2.65 -0.024,-0.422 -0.126,-0.624 -0.538,-0.71 a 2.556,2.556 0 0 0 -0.484,-0.036 c -0.14,0 -0.218,-0.026 -0.218,-0.119 0,-0.085 0.09,-0.113 0.277,-0.113 0.337,0 0.702,0.015 1.015,0.015 0.32,0.013 0.61,0.028 0.784,0.028 0.401,0 2.884,0 3.124,-0.015 0.233,-0.028 0.434,-0.05 0.535,-0.073 0.062,-0.011 0.14,-0.052 0.198,-0.052 0.061,0 0.076,0.052 0.076,0.112 0,0.089 -0.058,0.24 -0.102,0.815 -0.008,0.123 -0.033,0.678 -0.059,0.82 -0.011,0.065 -0.04,0.138 -0.127,0.138 -0.087,0 -0.111,-0.06 -0.111,-0.171 0,-0.088 -0.01,-0.303 -0.072,-0.45 -0.091,-0.225 -0.214,-0.377 -0.84,-0.454 -0.212,-0.025 -1.525,-0.045 -1.773,-0.045 -0.064,0 -0.087,0.033 -0.087,0.122 v 3.163 c 0,0.086 0.014,0.135 0.087,0.135 0.274,0 1.713,0 1.998,-0.026 0.303,-0.023 0.488,-0.06 0.597,-0.186 0.09,-0.1 0.139,-0.163 0.201,-0.163 0.053,0 0.087,0.025 0.087,0.102 0,0.074 -0.046,0.273 -0.098,0.91 -0.01,0.248 -0.051,0.75 -0.051,0.84 0,0.097 0,0.233 -0.113,0.233 -0.088,0 -0.113,-0.048 -0.113,-0.11 -0.007,-0.123 -0.007,-0.285 -0.047,-0.452 -0.062,-0.247 -0.234,-0.433 -0.7,-0.485 -0.237,-0.025 -1.476,-0.04 -1.772,-0.04 -0.062,0 -0.076,0.052 -0.076,0.128 v 0.984 c 0,0.425 -0.014,1.578 0,1.94 0.023,0.855 0.222,1.05 1.495,1.05 0.327,0 0.852,0 1.178,-0.148 0.326,-0.156 0.475,-0.412 0.565,-0.928 0.023,-0.143 0.045,-0.19 0.135,-0.19 0.1,0 0.1,0.103 0.1,0.227 0,0.288 -0.1,1.138 -0.164,1.386 -0.091,0.325 -0.196,0.325 -0.672,0.325 -0.938,0 -1.622,-0.029 -2.163,-0.039 -0.536,-0.022 -0.926,-0.039 -1.3,-0.039 -0.137,0 -0.411,0 -0.712,0.017 -0.287,0 -0.61,0.022 -0.861,0.022 -0.162,0 -0.255,-0.039 -0.255,-0.124 0,-0.064 0.057,-0.095 0.2,-0.095 0.19,0 0.343,-0.028 0.456,-0.054 0.25,-0.05 0.309,-0.327 0.361,-0.687 0.062,-0.527 0.062,-1.511 0.062,-2.663 v -2.195 m 9.171,5.672 c -0.205,-0.091 -0.24,-0.15 -0.24,-0.426 0,-0.69 0.046,-1.437 0.058,-1.635 0.014,-0.19 0.054,-0.322 0.152,-0.322 0.114,0 0.125,0.11 0.125,0.21 0,0.158 0.052,0.42 0.113,0.637 0.273,0.923 1.013,1.26 1.79,1.26 1.118,0 1.67,-0.766 1.67,-1.43 0,-0.61 -0.191,-1.18 -1.224,-1.993 l -0.574,-0.452 c -1.374,-1.072 -1.849,-1.95 -1.849,-2.958 0,-1.376 1.15,-2.365 2.888,-2.365 0.808,0 1.334,0.129 1.66,0.217 0.113,0.028 0.177,0.06 0.177,0.149 0,0.162 -0.056,0.52 -0.056,1.498 0,0.277 -0.039,0.375 -0.135,0.375 -0.09,0 -0.126,-0.075 -0.126,-0.222 0,-0.115 -0.058,-0.504 -0.322,-0.827 -0.19,-0.234 -0.55,-0.611 -1.366,-0.611 -0.923,0 -1.483,0.537 -1.483,1.285 0,0.577 0.291,1.009 1.327,1.802 l 0.345,0.26 c 1.516,1.136 2.049,1.998 2.049,3.187 0,0.72 -0.273,1.588 -1.17,2.171 -0.623,0.397 -1.323,0.516 -1.99,0.516 -0.722,0 -1.283,-0.09 -1.819,-0.326 m 17.007,-4.337 c 0,-2.796 -1.61,-4.535 -3.655,-4.535 -1.44,0 -3.077,0.802 -3.077,3.911 0,2.6 1.44,4.659 3.835,4.659 0.878,0 2.897,-0.427 2.897,-4.035 z m -8.456,-0.237 c 0,-2.134 1.41,-4.9 5.16,-4.9 3.106,0 5.049,1.816 5.049,4.678 0,2.86 -2.003,5.122 -5.174,5.122 -3.584,0 -5.035,-2.687 -5.035,-4.9 z m 14.363,-1.098 c 0,-1.9 0,-2.252 -0.024,-2.65 -0.026,-0.422 -0.126,-0.624 -0.54,-0.71 a 2.543,2.543 0 0 0 -0.488,-0.036 c -0.139,0 -0.211,-0.026 -0.211,-0.119 0,-0.085 0.086,-0.113 0.276,-0.113 0.66,0 1.447,0.043 1.823,0.043 0.297,0 1.09,-0.043 1.534,-0.043 0.19,0 0.277,0.028 0.277,0.113 0,0.093 -0.076,0.12 -0.2,0.12 -0.138,0 -0.215,0.01 -0.364,0.035 -0.34,0.059 -0.432,0.277 -0.462,0.71 -0.022,0.398 -0.022,0.75 -0.022,2.65 v 1.748 c 0,1.808 0.36,2.573 0.972,3.075 0.562,0.461 1.14,0.51 1.56,0.51 0.551,0 1.228,-0.174 1.727,-0.675 0.686,-0.692 0.722,-1.812 0.722,-3.099 v -1.559 c 0,-1.9 0,-2.252 -0.021,-2.65 -0.026,-0.422 -0.128,-0.624 -0.538,-0.71 a 2.385,2.385 0 0 0 -0.454,-0.036 c -0.135,0 -0.208,-0.026 -0.208,-0.119 0,-0.085 0.083,-0.113 0.264,-0.113 0.631,0 1.416,0.043 1.416,0.043 0.17,0 0.952,-0.043 1.44,-0.043 0.179,0 0.26,0.028 0.26,0.113 0,0.093 -0.07,0.12 -0.224,0.12 -0.135,0 -0.214,0.01 -0.356,0.035 -0.34,0.059 -0.445,0.277 -0.468,0.71 -0.024,0.398 -0.024,0.75 -0.024,2.65 v 1.335 c 0,1.388 -0.135,2.857 -1.188,3.757 -0.885,0.765 -1.783,0.906 -2.6,0.906 -0.655,0 -1.859,-0.042 -2.768,-0.868 -0.64,-0.574 -1.11,-1.497 -1.11,-3.306 v -1.824 m 14.612,0.982 c 0,0.141 0.023,0.193 0.111,0.229 0.263,0.087 0.637,0.124 0.95,0.124 0.5,0 0.66,-0.052 0.886,-0.212 0.376,-0.277 0.737,-0.848 0.737,-1.873 0,-1.775 -1.174,-2.286 -1.91,-2.286 -0.314,0 -0.535,0.012 -0.663,0.049 -0.088,0.027 -0.112,0.072 -0.112,0.174 v 3.796 z m -1.475,-0.982 c 0,-1.9 0,-2.252 -0.026,-2.65 -0.026,-0.422 -0.123,-0.624 -0.536,-0.71 a 2.567,2.567 0 0 0 -0.487,-0.036 c -0.135,0 -0.216,-0.026 -0.216,-0.119 0,-0.085 0.087,-0.113 0.28,-0.113 0.656,0 1.447,0.043 1.708,0.043 0.429,0 1.375,-0.043 1.763,-0.043 0.786,0 1.626,0.082 2.295,0.545 0.354,0.237 0.853,0.873 0.853,1.71 0,0.92 -0.386,1.772 -1.652,2.797 1.113,1.398 1.974,2.51 2.71,3.286 0.699,0.722 1.214,0.812 1.4,0.846 0.138,0.025 0.252,0.043 0.35,0.043 0.101,0 0.15,0.03 0.15,0.095 0,0.102 -0.085,0.124 -0.24,0.124 h -1.183 c -0.696,0 -1.014,-0.06 -1.334,-0.237 -0.54,-0.288 -1.017,-0.871 -1.713,-1.835 -0.502,-0.684 -1.075,-1.536 -1.238,-1.72 -0.063,-0.08 -0.14,-0.09 -0.224,-0.09 L 134.083,31.1 c -0.065,0 -0.104,0.025 -0.104,0.098 v 0.178 c 0,1.159 0,2.143 0.064,2.67 0.04,0.36 0.109,0.637 0.488,0.687 0.184,0.026 0.46,0.054 0.609,0.054 0.1,0 0.148,0.03 0.148,0.095 0,0.085 -0.087,0.124 -0.247,0.124 -0.725,0 -1.65,-0.039 -1.836,-0.039 -0.238,0 -1.029,0.039 -1.523,0.039 -0.162,0 -0.249,-0.039 -0.249,-0.124 0,-0.064 0.045,-0.095 0.197,-0.095 0.19,0 0.339,-0.028 0.45,-0.054 0.25,-0.05 0.311,-0.327 0.363,-0.687 0.062,-0.527 0.062,-1.511 0.062,-2.663 z m 11.514,4.63 c -1.228,-1.074 -1.548,-2.471 -1.548,-3.682 0,-0.846 0.262,-2.322 1.464,-3.423 0.893,-0.826 2.081,-1.327 3.944,-1.327 0.773,0 1.237,0.054 1.81,0.129 0.476,0.06 0.876,0.178 1.251,0.21 0.134,0.014 0.188,0.077 0.188,0.154 0,0.1 -0.038,0.244 -0.063,0.682 -0.026,0.417 -0.016,1.103 -0.04,1.35 -0.012,0.188 -0.037,0.29 -0.15,0.29 -0.098,0 -0.122,-0.102 -0.122,-0.277 a 1.804,1.804 0 0 0 -0.488,-1.146 c -0.411,-0.436 -1.384,-0.777 -2.535,-0.777 -1.087,0 -1.801,0.272 -2.348,0.777 -0.913,0.833 -1.152,2.019 -1.152,3.231 0,2.973 2.264,4.447 3.936,4.447 1.11,0 1.785,-0.12 2.282,-0.7 0.216,-0.237 0.38,-0.602 0.427,-0.822 0.037,-0.203 0.065,-0.248 0.164,-0.248 0.089,0 0.113,0.085 0.113,0.187 0,0.147 -0.15,1.236 -0.277,1.66 -0.066,0.21 -0.112,0.277 -0.32,0.363 -0.504,0.2 -1.454,0.29 -2.253,0.29 -1.71,0 -3.146,-0.376 -4.283,-1.368 m 11.761,-4.63 c 0,-1.9 0,-2.252 -0.021,-2.65 -0.025,-0.422 -0.128,-0.624 -0.538,-0.71 -0.1,-0.026 -0.31,-0.036 -0.487,-0.036 -0.137,0 -0.215,-0.026 -0.215,-0.119 0,-0.085 0.089,-0.113 0.27,-0.113 0.347,0 0.704,0.015 1.018,0.015 0.33,0.013 0.616,0.028 0.789,0.028 0.399,0 2.883,0 3.123,-0.015 0.235,-0.028 0.435,-0.05 0.535,-0.073 0.065,-0.011 0.144,-0.052 0.196,-0.052 0.069,0 0.076,0.052 0.076,0.112 0,0.089 -0.062,0.24 -0.095,0.815 -0.013,0.123 -0.033,0.678 -0.062,0.82 -0.013,0.065 -0.04,0.138 -0.123,0.138 -0.092,0 -0.117,-0.06 -0.117,-0.171 0,-0.088 -0.01,-0.303 -0.077,-0.45 -0.085,-0.225 -0.21,-0.377 -0.834,-0.454 -0.211,-0.025 -1.526,-0.045 -1.772,-0.045 -0.065,0 -0.09,0.033 -0.09,0.122 v 3.163 c 0,0.086 0.018,0.135 0.09,0.135 0.27,0 1.714,0 1.998,-0.026 0.3,-0.023 0.484,-0.06 0.598,-0.186 0.087,-0.1 0.139,-0.163 0.204,-0.163 0.044,0 0.084,0.025 0.084,0.102 0,0.074 -0.051,0.273 -0.099,0.91 -0.016,0.248 -0.05,0.75 -0.05,0.84 0,0.097 0,0.233 -0.115,0.233 -0.085,0 -0.112,-0.048 -0.112,-0.11 -0.009,-0.123 -0.009,-0.285 -0.047,-0.452 -0.066,-0.247 -0.24,-0.433 -0.704,-0.485 -0.236,-0.025 -1.473,-0.04 -1.767,-0.04 -0.062,0 -0.08,0.052 -0.08,0.128 v 0.984 c 0,0.425 -0.01,1.578 0,1.94 0.025,0.855 0.23,1.05 1.5,1.05 0.325,0 0.849,0 1.175,-0.148 0.325,-0.156 0.474,-0.412 0.565,-0.928 0.017,-0.143 0.047,-0.19 0.135,-0.19 0.1,0 0.1,0.103 0.1,0.227 0,0.288 -0.1,1.138 -0.162,1.386 -0.088,0.325 -0.205,0.325 -0.675,0.325 -0.934,0 -1.622,-0.029 -2.16,-0.039 -0.541,-0.022 -0.928,-0.039 -1.295,-0.039 -0.142,0 -0.418,0 -0.715,0.017 -0.292,0 -0.615,0.022 -0.865,0.022 -0.17,0 -0.25,-0.039 -0.25,-0.124 0,-0.064 0.052,-0.095 0.201,-0.095 a 1.9,1.9 0 0 0 0.449,-0.054 c 0.25,-0.05 0.313,-0.327 0.363,-0.687 0.058,-0.527 0.058,-1.511 0.058,-2.663 v -2.195 m 9.171,5.672 c -0.196,-0.091 -0.238,-0.15 -0.238,-0.426 0,-0.69 0.049,-1.437 0.064,-1.635 0.014,-0.19 0.046,-0.322 0.145,-0.322 0.117,0 0.124,0.11 0.124,0.21 0,0.158 0.049,0.42 0.117,0.637 0.272,0.923 1.013,1.26 1.786,1.26 1.12,0 1.673,-0.766 1.673,-1.43 0,-0.61 -0.187,-1.18 -1.225,-1.993 l -0.574,-0.452 c -1.374,-1.072 -1.846,-1.95 -1.846,-2.958 0,-1.376 1.148,-2.365 2.883,-2.365 0.813,0 1.341,0.129 1.662,0.217 0.113,0.028 0.176,0.06 0.176,0.149 0,0.162 -0.048,0.52 -0.048,1.498 0,0.277 -0.04,0.375 -0.142,0.375 -0.085,0 -0.126,-0.075 -0.126,-0.222 0,-0.115 -0.06,-0.504 -0.32,-0.827 -0.19,-0.234 -0.553,-0.611 -1.367,-0.611 -0.921,0 -1.482,0.537 -1.482,1.285 0,0.577 0.289,1.009 1.326,1.802 l 0.346,0.26 c 1.513,1.136 2.05,1.998 2.05,3.187 0,0.72 -0.278,1.588 -1.175,2.171 -0.627,0.397 -1.326,0.516 -1.986,0.516 -0.725,0 -1.287,-0.09 -1.823,-0.326 M 75.892,49.463 c 0,-1.896 0,-2.245 -0.022,-2.648 -0.025,-0.426 -0.15,-0.636 -0.427,-0.699 a 1.692,1.692 0 0 0 -0.452,-0.044 c -0.121,0 -0.196,-0.03 -0.196,-0.135 0,-0.069 0.101,-0.096 0.295,-0.096 0.478,0 1.265,0.035 1.626,0.035 0.313,0 1.051,-0.035 1.527,-0.035 0.16,0 0.258,0.027 0.258,0.096 0,0.106 -0.074,0.135 -0.2,0.135 -0.12,0 -0.222,0.005 -0.376,0.032 -0.334,0.062 -0.433,0.274 -0.455,0.711 -0.029,0.403 -0.029,0.752 -0.029,2.648 v 2.197 c 0,1.213 0,2.2 0.051,2.74 0.04,0.336 0.126,0.558 0.496,0.606 0.178,0.027 0.452,0.055 0.641,0.055 0.137,0 0.197,0.037 0.197,0.1 0,0.085 -0.097,0.122 -0.237,0.122 -0.822,0 -1.61,-0.037 -1.948,-0.037 -0.286,0 -1.073,0.037 -1.57,0.037 -0.16,0 -0.254,-0.037 -0.254,-0.122 0,-0.063 0.053,-0.1 0.202,-0.1 0.188,0 0.34,-0.028 0.454,-0.055 0.248,-0.048 0.32,-0.255 0.361,-0.62 0.058,-0.526 0.058,-1.513 0.058,-2.726 v -2.197 m 8.306,4.125 c 0.026,0.973 0.187,1.298 0.438,1.385 0.212,0.073 0.449,0.088 0.649,0.088 0.14,0 0.211,0.024 0.211,0.1 0,0.097 -0.11,0.122 -0.284,0.122 -0.813,0 -1.318,-0.037 -1.551,-0.037 -0.111,0 -0.697,0.037 -1.35,0.037 -0.159,0 -0.274,-0.01 -0.274,-0.122 0,-0.076 0.073,-0.1 0.197,-0.1 0.164,0 0.39,-0.015 0.565,-0.061 0.328,-0.101 0.374,-0.468 0.387,-1.55 l 0.116,-7.398 c 0,-0.25 0.033,-0.424 0.16,-0.424 0.135,0 0.248,0.163 0.463,0.386 0.146,0.165 2.05,2.2 3.871,4.012 0.851,0.85 2.534,2.65 2.744,2.847 h 0.069 l -0.127,-5.61 c -0.014,-0.764 -0.13,-0.997 -0.426,-1.124 -0.184,-0.067 -0.488,-0.067 -0.66,-0.067 -0.15,0 -0.204,-0.042 -0.204,-0.12 0,-0.101 0.142,-0.111 0.329,-0.111 0.65,0 1.25,0.035 1.511,0.035 0.139,0 0.611,-0.035 1.222,-0.035 0.163,0 0.29,0.01 0.29,0.112 0,0.077 -0.076,0.119 -0.229,0.119 -0.123,0 -0.22,0 -0.374,0.032 -0.35,0.103 -0.447,0.362 -0.46,1.062 l -0.138,7.88 c 0,0.274 -0.051,0.393 -0.164,0.393 -0.136,0 -0.287,-0.144 -0.423,-0.278 -0.785,-0.752 -2.386,-2.387 -3.685,-3.674 -1.363,-1.351 -2.749,-2.91 -2.974,-3.147 h -0.033 l 0.134,5.248 m 12.402,1.55 c -0.201,-0.092 -0.235,-0.154 -0.235,-0.427 0,-0.686 0.048,-1.436 0.058,-1.638 0.015,-0.184 0.051,-0.323 0.15,-0.323 0.113,0 0.128,0.112 0.128,0.215 0,0.156 0.049,0.42 0.113,0.63 0.273,0.926 1.01,1.266 1.786,1.266 1.119,0 1.673,-0.762 1.673,-1.425 0,-0.61 -0.19,-1.185 -1.224,-2 l -0.577,-0.447 c -1.374,-1.079 -1.848,-1.949 -1.848,-2.96 0,-1.377 1.147,-2.36 2.883,-2.36 a 6.23,6.23 0 0 1 1.664,0.207 c 0.113,0.03 0.175,0.061 0.175,0.154 0,0.165 -0.049,0.524 -0.049,1.495 0,0.276 -0.037,0.377 -0.138,0.377 -0.088,0 -0.128,-0.072 -0.128,-0.226 0,-0.109 -0.06,-0.497 -0.32,-0.819 -0.19,-0.242 -0.555,-0.614 -1.363,-0.614 -0.924,0 -1.484,0.537 -1.484,1.282 0,0.577 0.287,1.011 1.323,1.801 l 0.349,0.262 c 1.51,1.135 2.045,2 2.045,3.186 0,0.722 -0.277,1.586 -1.174,2.17 -0.62,0.4 -1.322,0.518 -1.983,0.518 -0.725,0 -1.29,-0.092 -1.824,-0.324 m 11.576,-8.595 -1.86,0.046 c -0.73,0.026 -1.022,0.087 -1.21,0.364 a 1.5,1.5 0 0 0 -0.217,0.435 c -0.022,0.102 -0.06,0.151 -0.134,0.151 -0.087,0 -0.114,-0.06 -0.114,-0.198 0,-0.199 0.235,-1.335 0.268,-1.436 0.036,-0.168 0.072,-0.235 0.142,-0.235 0.102,0 0.23,0.121 0.535,0.144 0.366,0.037 0.84,0.062 1.251,0.062 h 4.951 c 0.396,0 0.671,-0.035 0.859,-0.062 0.188,-0.037 0.288,-0.058 0.34,-0.058 0.088,0 0.098,0.072 0.098,0.258 0,0.265 -0.038,1.128 -0.038,1.45 -0.011,0.129 -0.035,0.201 -0.112,0.201 -0.1,0 -0.127,-0.066 -0.141,-0.245 l -0.005,-0.143 c -0.028,-0.324 -0.365,-0.672 -1.476,-0.697 l -1.574,-0.037 v 5.117 c 0,1.15 0,2.136 0.066,2.673 0.032,0.353 0.108,0.625 0.482,0.673 0.175,0.027 0.45,0.055 0.636,0.055 0.138,0 0.201,0.037 0.201,0.1 0,0.085 -0.101,0.122 -0.237,0.122 -0.823,0 -1.607,-0.037 -1.957,-0.037 -0.292,0 -1.082,0.037 -1.578,0.037 -0.161,0 -0.253,-0.037 -0.253,-0.122 0,-0.063 0.055,-0.1 0.201,-0.1 0.194,0 0.343,-0.028 0.452,-0.055 0.253,-0.048 0.324,-0.32 0.361,-0.68 0.063,-0.53 0.063,-1.516 0.063,-2.666 v -5.117 m 9.17,2.92 c 0,-1.896 0,-2.245 -0.026,-2.648 -0.025,-0.426 -0.153,-0.636 -0.424,-0.699 -0.137,-0.04 -0.3,-0.044 -0.455,-0.044 -0.123,0 -0.198,-0.03 -0.198,-0.135 0,-0.069 0.1,-0.096 0.296,-0.096 0.479,0 1.27,0.035 1.63,0.035 0.312,0 1.048,-0.035 1.523,-0.035 0.162,0 0.26,0.027 0.26,0.096 0,0.106 -0.075,0.135 -0.198,0.135 -0.123,0 -0.221,0.005 -0.373,0.032 -0.337,0.062 -0.442,0.274 -0.461,0.711 -0.027,0.403 -0.027,0.752 -0.027,2.648 v 2.197 c 0,1.213 0,2.2 0.046,2.74 0.042,0.336 0.127,0.558 0.506,0.606 0.17,0.027 0.447,0.055 0.638,0.055 0.135,0 0.196,0.037 0.196,0.1 0,0.085 -0.105,0.122 -0.24,0.122 -0.822,0 -1.61,-0.037 -1.948,-0.037 -0.283,0 -1.073,0.037 -1.574,0.037 -0.163,0 -0.25,-0.037 -0.25,-0.122 0,-0.063 0.051,-0.1 0.201,-0.1 0.188,0 0.338,-0.028 0.447,-0.055 0.252,-0.048 0.325,-0.255 0.363,-0.62 0.068,-0.526 0.068,-1.513 0.068,-2.726 v -2.197 m 9.262,-2.92 -1.858,0.046 c -0.724,0.026 -1.025,0.087 -1.215,0.364 -0.124,0.19 -0.188,0.337 -0.208,0.435 -0.03,0.102 -0.066,0.151 -0.138,0.151 -0.092,0 -0.111,-0.06 -0.111,-0.198 0,-0.199 0.234,-1.335 0.26,-1.436 0.038,-0.168 0.073,-0.235 0.15,-0.235 0.1,0 0.225,0.121 0.538,0.144 0.363,0.037 0.836,0.062 1.246,0.062 h 4.948 c 0.4,0 0.674,-0.035 0.867,-0.062 0.181,-0.037 0.284,-0.058 0.33,-0.058 0.089,0 0.103,0.072 0.103,0.258 0,0.265 -0.04,1.128 -0.04,1.45 -0.01,0.129 -0.036,0.201 -0.109,0.201 -0.103,0 -0.126,-0.066 -0.14,-0.245 l -0.009,-0.143 c -0.026,-0.324 -0.367,-0.672 -1.473,-0.697 l -1.578,-0.037 v 5.117 c 0,1.15 0,2.136 0.062,2.673 0.038,0.353 0.112,0.625 0.488,0.673 0.176,0.027 0.448,0.055 0.634,0.055 0.143,0 0.206,0.037 0.206,0.1 0,0.085 -0.102,0.122 -0.243,0.122 -0.82,0 -1.61,-0.037 -1.962,-0.037 -0.282,0 -1.07,0.037 -1.573,0.037 -0.162,0 -0.251,-0.037 -0.251,-0.122 0,-0.063 0.055,-0.1 0.202,-0.1 0.188,0 0.338,-0.028 0.446,-0.055 0.255,-0.048 0.329,-0.32 0.37,-0.68 0.058,-0.53 0.058,-1.516 0.058,-2.666 v -5.117 m 8.632,2.92 c 0,-1.896 0,-2.245 -0.028,-2.648 -0.025,-0.426 -0.122,-0.62 -0.535,-0.711 a 2.453,2.453 0 0 0 -0.484,-0.032 c -0.136,0 -0.214,-0.03 -0.214,-0.12 0,-0.084 0.085,-0.111 0.275,-0.111 0.66,0 1.447,0.035 1.823,0.035 0.298,0 1.082,-0.035 1.536,-0.035 0.188,0 0.275,0.027 0.275,0.112 0,0.09 -0.076,0.119 -0.201,0.119 -0.134,0 -0.215,0.005 -0.364,0.032 -0.332,0.062 -0.437,0.274 -0.46,0.711 -0.025,0.403 -0.025,0.752 -0.025,2.648 v 1.748 c 0,1.813 0.363,2.577 0.974,3.074 0.561,0.466 1.136,0.513 1.563,0.513 0.547,0 1.217,-0.175 1.722,-0.675 0.688,-0.687 0.722,-1.809 0.722,-3.098 v -1.562 c 0,-1.896 0,-2.245 -0.024,-2.648 -0.019,-0.426 -0.12,-0.62 -0.535,-0.711 a 2.234,2.234 0 0 0 -0.445,-0.032 c -0.146,0 -0.223,-0.03 -0.223,-0.12 0,-0.084 0.092,-0.111 0.265,-0.111 0.643,0 1.427,0.035 1.438,0.035 0.153,0 0.94,-0.035 1.429,-0.035 0.171,0 0.259,0.027 0.259,0.112 0,0.09 -0.074,0.119 -0.223,0.119 -0.14,0 -0.212,0.005 -0.364,0.032 -0.34,0.062 -0.438,0.274 -0.464,0.711 -0.025,0.403 -0.025,0.752 -0.025,2.648 v 1.334 c 0,1.389 -0.138,2.863 -1.186,3.764 -0.884,0.76 -1.784,0.9 -2.599,0.9 -0.661,0 -1.861,-0.037 -2.77,-0.857 -0.637,-0.579 -1.113,-1.505 -1.113,-3.318 v -1.823 m 14.798,-2.92 -1.86,0.046 c -0.725,0.026 -1.023,0.087 -1.21,0.364 -0.124,0.19 -0.185,0.337 -0.215,0.435 -0.022,0.102 -0.062,0.151 -0.136,0.151 -0.086,0 -0.113,-0.06 -0.113,-0.198 0,-0.199 0.235,-1.335 0.26,-1.436 0.04,-0.168 0.08,-0.235 0.153,-0.235 0.099,0 0.222,0.121 0.536,0.144 0.361,0.037 0.838,0.062 1.25,0.062 h 4.946 c 0.402,0 0.672,-0.035 0.864,-0.062 0.186,-0.037 0.285,-0.058 0.34,-0.058 0.083,0 0.098,0.072 0.098,0.258 0,0.265 -0.04,1.128 -0.04,1.45 -0.015,0.129 -0.037,0.201 -0.113,0.201 -0.099,0 -0.128,-0.066 -0.135,-0.245 l -0.011,-0.143 c -0.03,-0.324 -0.365,-0.672 -1.472,-0.697 l -1.578,-0.037 v 5.117 c 0,1.15 0,2.136 0.061,2.673 0.04,0.353 0.117,0.625 0.485,0.673 0.183,0.027 0.449,0.055 0.638,0.055 0.141,0 0.203,0.037 0.203,0.1 0,0.085 -0.103,0.122 -0.238,0.122 -0.83,0 -1.613,-0.037 -1.958,-0.037 -0.29,0 -1.08,0.037 -1.58,0.037 -0.16,0 -0.247,-0.037 -0.247,-0.122 0,-0.063 0.047,-0.1 0.2,-0.1 0.186,0 0.336,-0.028 0.447,-0.055 0.253,-0.048 0.324,-0.32 0.367,-0.68 0.058,-0.53 0.058,-1.516 0.058,-2.666 v -5.117 m 9.166,2.92 c 0,-1.896 0,-2.245 -0.022,-2.648 -0.025,-0.426 -0.121,-0.62 -0.536,-0.711 -0.101,-0.027 -0.313,-0.032 -0.49,-0.032 -0.136,0 -0.213,-0.03 -0.213,-0.12 0,-0.084 0.088,-0.111 0.278,-0.111 0.338,0 0.696,0.01 1.016,0.01 0.321,0.017 0.605,0.025 0.78,0.025 0.402,0 2.89,0 3.124,-0.008 0.237,-0.027 0.439,-0.054 0.54,-0.077 0.063,-0.014 0.134,-0.054 0.198,-0.054 0.062,0 0.075,0.054 0.075,0.114 0,0.086 -0.066,0.238 -0.098,0.812 -0.015,0.125 -0.041,0.678 -0.07,0.827 -0.007,0.065 -0.035,0.135 -0.12,0.135 -0.086,0 -0.113,-0.058 -0.113,-0.172 0,-0.088 -0.008,-0.298 -0.077,-0.45 -0.087,-0.223 -0.207,-0.377 -0.838,-0.45 -0.208,-0.026 -1.516,-0.054 -1.77,-0.054 -0.064,0 -0.089,0.044 -0.089,0.127 v 3.16 c 0,0.092 0.015,0.138 0.089,0.138 0.275,0 1.714,0 1.999,-0.023 0.295,-0.023 0.481,-0.06 0.597,-0.186 0.09,-0.1 0.14,-0.163 0.202,-0.163 0.049,0 0.085,0.023 0.085,0.097 0,0.075 -0.05,0.275 -0.1,0.91 -0.014,0.252 -0.047,0.755 -0.047,0.84 0,0.1 0,0.243 -0.114,0.243 -0.087,0 -0.112,-0.054 -0.112,-0.117 -0.014,-0.127 -0.014,-0.288 -0.051,-0.45 -0.058,-0.25 -0.238,-0.44 -0.695,-0.482 -0.238,-0.034 -1.482,-0.043 -1.78,-0.043 -0.058,0 -0.073,0.05 -0.073,0.126 v 0.984 c 0,0.426 -0.01,1.575 0,1.936 0.025,0.865 0.23,1.048 1.497,1.048 0.327,0 0.852,0 1.178,-0.148 0.325,-0.15 0.474,-0.41 0.562,-0.926 0.022,-0.134 0.046,-0.186 0.139,-0.186 0.099,0 0.099,0.1 0.099,0.226 0,0.289 -0.1,1.141 -0.164,1.39 -0.09,0.32 -0.202,0.32 -0.676,0.32 -0.937,0 -1.625,-0.025 -2.158,-0.037 a 26.578,26.578 0 0 0 -1.301,-0.037 c -0.138,0 -0.412,0 -0.714,0.012 -0.285,0 -0.612,0.025 -0.86,0.025 -0.16,0 -0.247,-0.037 -0.247,-0.122 0,-0.063 0.046,-0.1 0.2,-0.1 0.185,0 0.338,-0.028 0.448,-0.055 0.251,-0.048 0.315,-0.32 0.36,-0.68 0.062,-0.53 0.062,-1.516 0.062,-2.666 v -2.197"
       fill="#1a1919"
       id="path20" />
  </g>
</svg>
